<?xml version="1.0" encoding="utf-8"?>
<!-- Generator: Adobe Illustrator 23.1.0, SVG Export Plug-In . SVG Version: 6.00 Build 0)  -->
<svg version="1.1" xmlns="http://www.w3.org/2000/svg" xmlns:xlink="http://www.w3.org/1999/xlink" x="0px" y="0px"
	 viewBox="0 0 550 95.4" style="enable-background:new 0 0 550 95.4;" xml:space="preserve">
<style type="text/css">
	.st0{fill:#FBC02D;}
</style>
<g id="Layer_2">
</g>
<g id="Layer_1">
	<path class="st0" d="M76.8,58.7L98.4,41c3.1-2.5,1.5-7.5-2.5-7.7l-27.8-1.7c-1.7-0.1-3.2-1.2-3.8-2.7L54.1,2.8
		c-1.5-3.7-6.6-3.7-8.1,0l-10.2,26c-0.6,1.6-2.1,2.6-3.8,2.7L4.1,33.2c-4,0.2-5.6,5.2-2.5,7.7l21.6,17.7c1.3,1.1,1.9,2.8,1.5,4.4
		l-7,27c-0.9,3.8,3.2,6.8,6.5,4.7l23.5-15c1.5-0.9,3.3-0.9,4.6,0l23.6,15c3.4,2.1,7.5-0.9,6.5-4.7l-7-26.9
		C74.9,61.5,75.5,59.8,76.8,58.7z"/>
	<path class="st0" d="M189.3,58.7L210.9,41c3.1-2.5,1.5-7.5-2.5-7.7l-27.8-1.7c-1.7-0.1-3.2-1.2-3.8-2.7L166.6,2.8
		c-1.5-3.7-6.6-3.7-8.1,0l-10.2,26c-0.6,1.6-2.1,2.6-3.8,2.7l-27.9,1.7c-4,0.2-5.6,5.2-2.5,7.7l21.6,17.7c1.3,1.1,1.9,2.8,1.5,4.4
		l-7,27c-0.9,3.8,3.2,6.8,6.5,4.7l23.5-15c1.5-0.9,3.3-0.9,4.6,0l23.6,15c3.4,2.1,7.5-0.9,6.5-4.7l-7-26.9
		C187.4,61.5,188,59.8,189.3,58.7z"/>
	<path class="st0" d="M301.8,58.7L323.4,41c3.1-2.5,1.5-7.5-2.5-7.7l-27.8-1.7c-1.7-0.1-3.2-1.2-3.8-2.7L279.1,2.8
		c-1.5-3.7-6.6-3.7-8.1,0l-10.2,26c-0.6,1.6-2.1,2.6-3.8,2.7l-27.9,1.7c-4,0.2-5.6,5.2-2.5,7.7l21.6,17.7c1.3,1.1,1.9,2.8,1.5,4.4
		l-7,27c-0.9,3.8,3.2,6.8,6.5,4.7l23.5-15c1.5-0.9,3.3-0.9,4.6,0l23.6,15c3.4,2.1,7.5-0.9,6.5-4.7l-7-26.9
		C299.9,61.5,300.5,59.8,301.8,58.7z"/>
	<path class="st0" d="M414.3,58.7L435.9,41c3.1-2.5,1.5-7.5-2.5-7.7l-27.8-1.7c-1.7-0.1-3.2-1.2-3.8-2.7L391.6,2.8
		c-1.5-3.7-6.6-3.7-8.1,0l-10.2,26c-0.6,1.6-2.1,2.6-3.8,2.7l-27.9,1.7c-4,0.2-5.6,5.2-2.5,7.7l21.6,17.7c1.3,1.1,1.9,2.8,1.5,4.4
		l-7,27c-0.9,3.8,3.2,6.8,6.5,4.7l23.5-15c1.5-0.9,3.3-0.9,4.6,0l23.6,15c3.4,2.1,7.5-0.9,6.5-4.7l-7-26.9
		C412.4,61.5,413,59.8,414.3,58.7z"/>
	<path class="st0" d="M526.8,58.7L548.4,41c3.1-2.5,1.5-7.5-2.5-7.7l-27.8-1.7c-1.7-0.1-3.2-1.2-3.8-2.7L504.1,2.8
		c-1.5-3.7-6.6-3.7-8.1,0l-10.2,26c-0.6,1.6-2.1,2.6-3.8,2.7l-27.9,1.7c-4,0.2-5.6,5.2-2.5,7.7l21.6,17.7c1.3,1.1,1.9,2.8,1.5,4.4
		l-7,27c-0.9,3.8,3.2,6.8,6.5,4.7l23.5-15c1.5-0.9,3.3-0.9,4.6,0l23.6,15c3.4,2.1,7.5-0.9,6.5-4.7l-7-26.9
		C524.9,61.5,525.5,59.8,526.8,58.7z"/>
</g>
</svg>
