<?xml version="1.0" encoding="utf-8"?>
<!-- Generator: Adobe Illustrator 23.1.0, SVG Export Plug-In . SVG Version: 6.00 Build 0)  -->
<svg version="1.1" id="Layer_1" xmlns="http://www.w3.org/2000/svg" xmlns:xlink="http://www.w3.org/1999/xlink" x="0px" y="0px"
	 viewBox="0 0 80 60" style="enable-background:new 0 0 80 60;" xml:space="preserve">
<style type="text/css">
	.st0{fill-rule:evenodd;clip-rule:evenodd;fill:#FFFFFF;}
</style>
<path class="st0" d="M75,35H5c-2.8,0-5-2.2-5-5s2.2-5,5-5h70c2.8,0,5,2.2,5,5S77.8,35,75,35z M75,10H5c-2.8,0-5-2.2-5-5s2.2-5,5-5
	h70c2.8,0,5,2.2,5,5S77.8,10,75,10z M5,50h70c2.8,0,5,2.2,5,5s-2.2,5-5,5H5c-2.8,0-5-2.2-5-5S2.2,50,5,50z"/>
</svg>
