<svg enable-background="new 0 0 1079.997 875.049" viewBox="0 0 1079.997 875.049" xmlns="http://www.w3.org/2000/svg"><g fill="#e96c2c"><path d="m203.901 748.797c-13.176-5.256-19.908-7.992-19.908-16.2s9.216-10.44 16.92-10.44c11.628 1.296 22.716 5.688 32.112 12.708l8.208-22.896c-11.232-9.252-25.272-14.4-39.816-14.688-26.64-.252-46.8 17.172-46.8 36.108s11.952 28.404 48.06 42.084c11.232 4.212 15.948 5.688 15.948 13.932s-8.712 12.708-21.672 12.708c-14.94-.864-29.124-6.912-40.068-17.172l-11.7 20.412c13.644 13.572 32.04 21.312 51.264 21.6 30.852-.252 50.04-16.416 49.788-38.088-.252-21.636-17.424-29.628-42.336-40.068z" opacity=".88"/><path d="m338.361 696.813c-16.74-.864-32.58 7.704-41.076 22.14v-19.656h-28.872v175.752h28.872v-72.684c8.496 14.436 24.336 22.968 41.076 22.14 1.62.036 3.24.036 4.86-.072 33.192-1.944 58.572-30.42 56.628-63.648.108-1.512.108-3.06.108-4.572-.612-33.408-28.188-60.012-61.596-59.4zm32.148 69.876c-1.656 19.332-18.612 33.66-37.944 32.04-19.332-1.656-33.66-18.612-32.04-37.944-.036-.576-.036-1.188-.036-1.764.288-19.116 16.02-34.38 35.136-34.092.864-.036 1.692 0 2.556.036 18.792.972 33.264 16.992 32.292 35.82.18 1.98.18 3.96.036 5.904z" opacity=".88"/><path d="m488.877 700.917c-35.424-2.196-65.916 24.732-68.112 60.12 2.016 32.328 27.792 58.104 60.12 60.12 35.424 2.196 65.916-24.732 68.112-60.12-2.016-32.328-27.792-58.104-60.12-60.12zm31.464 60.12h-.54c.036.396.036.828.036 1.26.144 19.116-15.264 34.704-34.38 34.812-.324 0-.684 0-1.008 0-19.368-.54-34.632-16.704-34.092-36.072-.18-1.98-.18-3.924 0-5.904 1.656-19.332 18.612-33.66 37.944-32.04 19.332 1.656 33.66 18.612 32.04 37.944z" opacity=".88"/><path d="m602.241 724.209v-24.912h-28.872v123.264h28.872v-62.244c1.584-20.124 18.684-35.424 38.844-34.848h3.492v-27.648c-18.108-.396-34.74 9.972-42.336 26.388z" opacity=".88"/><path d="m707.541 664.701h-28.872v34.596h-15.696v27.144h15.696v61.74c-.648 3.384-.756 6.876-.396 10.368 2.232 18 18.684 30.78 36.684 28.512 9.288-.108 18.432-2.124 26.892-5.976v-24.912c-6.3 1.836-12.816 2.844-19.404 2.988-1.044.072-2.124.036-3.168-.108-7.596-1.152-12.852-8.208-11.736-15.84v-56.772h34.344v-27.144h-34.344z" opacity=".88"/><path d="m783.465 788.685c-9.18.252-16.524 7.704-16.668 16.92v.504c.144 9.072 7.596 16.308 16.668 16.164h.252c9.216 0 16.668-7.452 16.668-16.668-.108-9.288-7.632-16.776-16.92-16.92z" opacity=".88"/><path d="m881.313 697.065c-.792 0-1.548 0-2.304.036-33.948 1.368-60.336 29.988-58.968 63.936-.072 1.368-.072 2.7-.036 4.068.864 33.84 28.98 60.552 62.784 59.688 23.292.612 44.82-12.276 55.26-33.12l-22.392-11.952c-5.256 11.052-15.948 18.504-28.116 19.62-19.008 1.728-35.856-12.276-37.584-31.32h91.836v-9.72c.072-1.44.072-2.88.036-4.32-.972-32.436-28.08-57.924-60.516-56.916zm-30.348 52.02c2.016-15.768 15.48-27.54 31.356-27.396.792-.072 1.62-.144 2.412-.144 15.552-.324 28.404 12.024 28.728 27.54z" opacity=".88"/><path d="m1017.969 748.077c-13.176-5.256-19.908-7.992-19.908-16.2s8.964-10.44 16.92-10.44c11.628 1.296 22.716 5.688 32.112 12.708l8.208-22.896c-11.232-9.252-25.272-14.4-39.816-14.688-26.64-.252-46.8 16.452-46.8 36.108s10.98 29.124 48.06 42.804c11.232 4.212 15.948 5.688 15.948 13.932s-8.712 12.708-21.672 12.708c-15.012-.9-29.268-6.948-40.32-17.172l-11.448 20.412c13.788 13.284 32.148 20.772 51.264 20.88 30.852-.252 50.292-16.416 49.788-38.088-.504-21.636-17.424-29.628-42.336-40.068z" opacity=".88"/><path d="m1027.473 52.557c-32.976-34.416-78.84-53.46-126.468-52.524-47.844-.9-93.924 18.144-127.224 52.524-34.308 33.156-53.316 79.02-52.524 126.72-.815 47.01 17.59 92.267 50.903 125.362-68.382 70.285-67.85 182.664 1.621 252.278 33.48 34.056 79.488 52.848 127.224 52.02 95.328-.144 173.844-74.844 178.74-170.028 0-3.24 0-6.228 0-9.468v-4.464c-1.185-46.608-20.04-88.603-49.988-119.757 29.038-30.094 47.682-70.38 49.988-115.215 0-4.284.252-7.524.252-10.764v-4.464c-.396-46.152-19.296-90.216-52.524-122.22zm-175.068 76.932.036-.036c12.852-13.752 30.96-21.456 49.788-21.168 18.684-.216 36.648 7.164 49.788 20.412v.756c27.9 27.9 27.936 73.152.036 101.052l-.036.036c-10.694 10.84-24.582 17.792-39.454 19.947-5.555-.374-11.174-.508-16.85-.363-1.797.047-3.589.129-5.379.229-14.344-2.292-27.678-9.174-37.893-19.813-27.9-27.9-27.936-73.152-.036-101.052zm48.6 373.392c-18.828.18-36.864-7.488-49.788-21.168-27.828-28.044-27.828-73.26 0-101.34 12.017-12.45 28.376-19.683 45.572-20.363 1.404.023 2.809.033 4.216.023.617-.001 1.231-.018 1.847-.025 38.6.982 69.613 32.541 69.613 71.413 0 39.456-31.968 71.46-71.46 71.46z" opacity=".88"/><path d="m540.033 608.937c95.4 0 174.096-74.736 178.992-170.028 0-3.24 0-6.228 0-9.468v-4.464c-1.225-46.522-20.136-88.498-50.18-119.596 29.125-30.109 47.837-70.456 50.145-115.376.288-4.284.504-7.524.504-10.764v-4.464c-.504-46.116-19.404-90.144-52.524-122.22-33.156-34.452-79.164-53.46-126.972-52.524-99-.288-179.46 79.74-179.748 178.74v.504c-.816 47.078 17.643 92.4 51.049 125.508-68.239 70.294-67.66 182.566 1.763 252.132 33.443 33.984 79.307 52.776 126.971 52.02zm-49.824-480.204.036-.036c12.888-13.716 30.96-21.384 49.788-21.168 19.368-.432 38.052 7.236 51.516 21.168v.756c27.9 27.9 27.936 73.152.036 101.052l-.036.036c-13.716 13.428-32.364 20.628-51.516 19.908-18.756.288-36.756-7.164-49.788-20.664-27.9-27.9-27.936-73.152-.036-101.052zm0 251.64c12.114-12.414 28.498-19.681 45.709-20.362 1.358.022 2.717.032 4.079.022.642 0 1.28-.017 1.921-.023 38.566 1.021 69.539 32.564 69.539 71.411 0 39.456-31.968 71.46-71.46 71.46-18.792.108-36.828-7.56-49.788-21.168-27.828-28.044-27.828-73.26 0-101.34z" opacity=".88"/><path d="m179.781 608.937c47.628.792 93.42-18.252 126.468-52.524 32.004-30.888 50.76-73.044 52.272-117.504 0-3.24 0-6.228 0-9.468v-4.464c-.385-44.987-18.337-87.957-49.894-119.86 30.514-30.69 48.35-71.804 49.894-115.147 0-4.248.252-7.488.252-10.728v-4.464c-.396-46.152-19.296-90.216-52.524-122.22-32.976-34.38-78.84-53.424-126.468-52.524-47.844-.937-93.924 18.071-127.224 52.487-34.38 33.084-53.388 79.02-52.524 126.72-.921 47.04 17.512 92.328 50.888 125.355-33.305 33.06-51.738 78.346-50.888 125.349-.936 47.808 18.108 93.816 52.524 126.972 33.48 34.056 79.488 52.848 127.224 52.02zm-49.824-479.448.036-.036c12.852-13.752 30.96-21.456 49.788-21.168 19.08-.504 37.548 6.876 51.048 20.412v.756c27.9 27.9 27.936 73.152.036 101.052l-.036.036c-10.707 10.793-24.582 17.698-39.427 19.899-3.942-.201-7.9-.28-11.873-.208-3.689-.047-7.364.037-11.026.222-14.58-2.191-28.149-9.122-38.51-19.914-27.9-27.899-27.936-73.151-.036-101.051zm.036 352.224c-27.828-28.044-27.828-73.26 0-101.34 12.157-12.594 28.755-19.862 46.17-20.396 1.205.016 2.41.029 3.618.019.49.007.979-.001 1.468.001 38.776.784 69.992 32.424 69.992 71.423 0 39.456-31.968 71.46-71.46 71.46-18.828.181-36.864-7.487-49.788-21.167z" opacity=".88"/></g></svg>