<?xml version="1.0" encoding="utf-8"?>
<!-- Generator: Adobe Illustrator 23.1.0, SVG Export Plug-In . SVG Version: 6.00 Build 0)  -->
<svg version="1.1" id="logo-brand-58" xmlns="http://www.w3.org/2000/svg" xmlns:xlink="http://www.w3.org/1999/xlink" x="0px"
	 y="0px" viewBox="0 0 1079.997 875.049" enable-background="new 0 0 1079.997 875.049" xml:space="preserve">
<g>
	<path opacity="0.88" fill="#E96C2C" enable-background="new    " d="M203.901,748.797c-13.176-5.256-19.908-7.992-19.908-16.2
		s9.216-10.44,16.92-10.44c11.628,1.296,22.716,5.688,32.112,12.708l8.208-22.896c-11.232-9.252-25.272-14.4-39.816-14.688
		c-26.64-0.252-46.8,17.172-46.8,36.108s11.952,28.404,48.06,42.084c11.232,4.212,15.948,5.688,15.948,13.932
		c0,8.244-8.712,12.708-21.672,12.708c-14.94-0.864-29.124-6.912-40.068-17.172l-11.7,20.412
		c13.644,13.572,32.04,21.312,51.264,21.6c30.852-0.252,50.04-16.416,49.788-38.088
		C245.985,767.229,228.813,759.237,203.901,748.797z"/>
	<path opacity="0.88" fill="#E96C2C" enable-background="new    " d="M338.361,696.813c-16.74-0.864-32.58,7.704-41.076,22.14
		v-19.656h-28.872v175.752h28.872v-72.684c8.496,14.436,24.336,22.968,41.076,22.14c1.62,0.036,3.24,0.036,4.86-0.072
		c33.192-1.944,58.572-30.42,56.628-63.648c0.108-1.512,0.108-3.06,0.108-4.572C399.345,722.805,371.769,696.201,338.361,696.813z
		 M370.509,766.689c-1.656,19.332-18.612,33.66-37.944,32.04c-19.332-1.656-33.66-18.612-32.04-37.944
		c-0.036-0.576-0.036-1.188-0.036-1.764c0.288-19.116,16.02-34.38,35.136-34.092c0.864-0.036,1.692,0,2.556,0.036
		c18.792,0.972,33.264,16.992,32.292,35.82C370.653,762.765,370.653,764.745,370.509,766.689z"/>
	<path opacity="0.88" fill="#E96C2C" enable-background="new    " d="M488.877,700.917c-35.424-2.196-65.916,24.732-68.112,60.12
		c2.016,32.328,27.792,58.104,60.12,60.12c35.424,2.196,65.916-24.732,68.112-60.12
		C546.981,728.709,521.205,702.933,488.877,700.917z M520.341,761.037h-0.54c0.036,0.396,0.036,0.828,0.036,1.26
		c0.144,19.116-15.264,34.704-34.38,34.812c-0.324,0-0.684,0-1.008,0c-19.368-0.54-34.632-16.704-34.092-36.072
		c-0.18-1.98-0.18-3.924,0-5.904c1.656-19.332,18.612-33.66,37.944-32.04C507.633,724.749,521.961,741.705,520.341,761.037z"/>
	<path opacity="0.88" fill="#E96C2C" enable-background="new    " d="M602.241,724.209v-24.912h-28.872v123.264h28.872v-62.244
		c1.584-20.124,18.684-35.424,38.844-34.848h3.492v-27.648C626.469,697.425,609.837,707.793,602.241,724.209z"/>
	<path opacity="0.88" fill="#E96C2C" enable-background="new    " d="M707.541,664.701h-28.872v34.596h-15.696v27.144h15.696v61.74
		c-0.648,3.384-0.756,6.876-0.396,10.368c2.232,18,18.684,30.78,36.684,28.512c9.288-0.108,18.432-2.124,26.892-5.976v-24.912
		c-6.3,1.836-12.816,2.844-19.404,2.988c-1.044,0.072-2.124,0.036-3.168-0.108c-7.596-1.152-12.852-8.208-11.736-15.84v-56.772
		h34.344v-27.144h-34.344V664.701z"/>
	<path opacity="0.88" fill="#E96C2C" enable-background="new    " d="M783.465,788.685c-9.18,0.252-16.524,7.704-16.668,16.92
		c0,0.18,0,0.324,0,0.504c0.144,9.072,7.596,16.308,16.668,16.164c0.072,0,0.18,0,0.252,0c9.216,0,16.668-7.452,16.668-16.668
		C800.277,796.317,792.753,788.829,783.465,788.685z"/>
	<path opacity="0.88" fill="#E96C2C" enable-background="new    " d="M881.313,697.065c-0.792,0-1.548,0-2.304,0.036
		c-33.948,1.368-60.336,29.988-58.968,63.936c-0.072,1.368-0.072,2.7-0.036,4.068c0.864,33.84,28.98,60.552,62.784,59.688
		c23.292,0.612,44.82-12.276,55.26-33.12l-22.392-11.952c-5.256,11.052-15.948,18.504-28.116,19.62
		c-19.008,1.728-35.856-12.276-37.584-31.32h91.836v-9.72c0.072-1.44,0.072-2.88,0.036-4.32
		C940.857,721.545,913.749,696.057,881.313,697.065z M850.965,749.085c2.016-15.768,15.48-27.54,31.356-27.396
		c0.792-0.072,1.62-0.144,2.412-0.144c15.552-0.324,28.404,12.024,28.728,27.54H850.965z"/>
	<path opacity="0.88" fill="#E96C2C" enable-background="new    " d="M1017.969,748.077c-13.176-5.256-19.908-7.992-19.908-16.2
		s8.964-10.44,16.92-10.44c11.628,1.296,22.716,5.688,32.112,12.708l8.208-22.896c-11.232-9.252-25.272-14.4-39.816-14.688
		c-26.64-0.252-46.8,16.452-46.8,36.108s10.98,29.124,48.06,42.804c11.232,4.212,15.948,5.688,15.948,13.932
		c0,8.244-8.712,12.708-21.672,12.708c-15.012-0.9-29.268-6.948-40.32-17.172l-11.448,20.412
		c13.788,13.284,32.148,20.772,51.264,20.88c30.852-0.252,50.292-16.416,49.788-38.088
		C1059.801,766.509,1042.881,758.517,1017.969,748.077z"/>
	<path opacity="0.88" fill="#E96C2C" enable-background="new    " d="M1027.473,52.557c-32.976-34.416-78.84-53.46-126.468-52.524
		c-47.844-0.9-93.924,18.144-127.224,52.524c-34.308,33.156-53.316,79.02-52.524,126.72c-0.815,47.01,17.59,92.267,50.903,125.362
		c-68.382,70.285-67.85,182.664,1.621,252.278c33.48,34.056,79.488,52.848,127.224,52.02
		c95.328-0.144,173.844-74.844,178.74-170.028c0-3.24,0-6.228,0-9.468v-4.464c-1.185-46.608-20.04-88.603-49.988-119.757
		c29.038-30.094,47.682-70.38,49.988-115.215c0-4.284,0.252-7.524,0.252-10.764v-4.464
		C1079.601,128.625,1060.701,84.561,1027.473,52.557z M852.405,129.489l0.036-0.036c12.852-13.752,30.96-21.456,49.788-21.168
		c18.684-0.216,36.648,7.164,49.788,20.412v0.756c27.9,27.9,27.936,73.152,0.036,101.052l-0.036,0.036
		c-10.694,10.84-24.582,17.792-39.454,19.947c-5.555-0.374-11.174-0.508-16.85-0.363c-1.797,0.047-3.589,0.129-5.379,0.229
		c-14.344-2.292-27.678-9.174-37.893-19.813C824.541,202.641,824.505,157.389,852.405,129.489z M901.005,502.881
		c-18.828,0.18-36.864-7.488-49.788-21.168c-27.828-28.044-27.828-73.26,0-101.34c12.017-12.45,28.376-19.683,45.572-20.363
		c1.404,0.023,2.809,0.033,4.216,0.023c0.617-0.001,1.231-0.018,1.847-0.025c38.6,0.982,69.613,32.541,69.613,71.413
		C972.465,470.877,940.497,502.881,901.005,502.881z"/>
	<path opacity="0.88" fill="#E96C2C" enable-background="new    " d="M540.033,608.937c95.4,0,174.096-74.736,178.992-170.028
		c0-3.24,0-6.228,0-9.468v-4.464c-1.225-46.522-20.136-88.498-50.18-119.596c29.125-30.109,47.837-70.456,50.145-115.376
		c0.288-4.284,0.504-7.524,0.504-10.764v-4.464c-0.504-46.116-19.404-90.144-52.524-122.22
		c-33.156-34.452-79.164-53.46-126.972-52.524c-99-0.288-179.46,79.74-179.748,178.74c0,0.18,0,0.324,0,0.504
		c-0.816,47.078,17.643,92.4,51.049,125.508c-68.239,70.294-67.66,182.566,1.763,252.132
		C446.505,590.901,492.369,609.693,540.033,608.937z M490.209,128.733l0.036-0.036c12.888-13.716,30.96-21.384,49.788-21.168
		c19.368-0.432,38.052,7.236,51.516,21.168v0.756c27.9,27.9,27.936,73.152,0.036,101.052l-0.036,0.036
		c-13.716,13.428-32.364,20.628-51.516,19.908c-18.756,0.288-36.756-7.164-49.788-20.664
		C462.345,201.885,462.309,156.633,490.209,128.733z M490.209,380.373c12.114-12.414,28.498-19.681,45.709-20.362
		c1.358,0.022,2.717,0.032,4.079,0.022c0.642,0,1.28-0.017,1.921-0.023c38.566,1.021,69.539,32.564,69.539,71.411
		c0,39.456-31.968,71.46-71.46,71.46c-18.792,0.108-36.828-7.56-49.788-21.168C462.381,453.669,462.381,408.453,490.209,380.373z"/>
	<path opacity="0.88" fill="#E96C2C" enable-background="new    " d="M179.781,608.937c47.628,0.792,93.42-18.252,126.468-52.524
		c32.004-30.888,50.76-73.044,52.272-117.504c0-3.24,0-6.228,0-9.468v-4.464c-0.385-44.987-18.337-87.957-49.894-119.86
		c30.514-30.69,48.35-71.804,49.894-115.147c0-4.248,0.252-7.488,0.252-10.728v-4.464c-0.396-46.152-19.296-90.216-52.524-122.22
		c-32.976-34.38-78.84-53.424-126.468-52.524C131.937-0.903,85.857,18.105,52.557,52.521c-34.38,33.084-53.388,79.02-52.524,126.72
		c-0.921,47.04,17.512,92.328,50.888,125.355C17.616,337.656-0.817,382.942,0.033,429.945
		c-0.936,47.808,18.108,93.816,52.524,126.972C86.037,590.973,132.045,609.765,179.781,608.937z M129.957,129.489l0.036-0.036
		c12.852-13.752,30.96-21.456,49.788-21.168c19.08-0.504,37.548,6.876,51.048,20.412v0.756c27.9,27.9,27.936,73.152,0.036,101.052
		l-0.036,0.036c-10.707,10.793-24.582,17.698-39.427,19.899c-3.942-0.201-7.9-0.28-11.873-0.208
		c-3.689-0.047-7.364,0.037-11.026,0.222c-14.58-2.191-28.149-9.122-38.51-19.914C102.093,202.641,102.057,157.389,129.957,129.489z
		 M129.993,481.713c-27.828-28.044-27.828-73.26,0-101.34c12.157-12.594,28.755-19.862,46.17-20.396
		c1.205,0.016,2.41,0.029,3.618,0.019c0.49,0.007,0.979-0.001,1.468,0.001c38.776,0.784,69.992,32.424,69.992,71.423
		c0,39.456-31.968,71.46-71.46,71.46C160.953,503.061,142.917,495.393,129.993,481.713z"/>
</g>
</svg>
