<svg enable-background="new 0 0 61.18 14.414" viewBox="0 0 61.18 14.414" xmlns="http://www.w3.org/2000/svg"><path d="m23.373 2.071c1.422-.458 2.825-.974 4.247-1.431-.012 1.239-.004 2.479-.005 3.718.646 0 1.293-.001 1.941-.001-.008.938-.001 1.875-.006 2.812-.647.011-1.296-.017-1.942.015.02.973-.011 1.946.015 2.919.011.433.198.923.628 1.095.434.094.886.007 1.306-.119-.009.94-.005 1.881-.004 2.821-1.187.369-2.448.63-3.692.45-.752-.11-1.472-.513-1.885-1.161-.462-.701-.587-1.56-.618-2.382-.003-1.213 0-2.425-.001-3.637-.496.001-.991-.006-1.486.01-.018-.941-.006-1.882-.006-2.824.497.003.994.001 1.492.001.01-.762-.021-1.525.016-2.286z" fill="#027b5b"/><path d="m30.569 1.315c1.382-.51 2.883-.533 4.339-.516 1.32.056 2.685.439 3.69 1.33 1.328 1.163 1.383 3.55-.014 4.677-.357.301-.781.51-1.223.654.641.225 1.28.532 1.722 1.067.709.819.822 2.003.566 3.022-.231.934-.933 1.692-1.778 2.122-1.534.832-3.348.815-5.038.651-.793-.075-1.574-.234-2.342-.441-.032-1.021 0-2.044-.016-3.064 1.318.437 2.763.727 4.138.398.922-.233.969-1.665.146-2.056-.87-.433-1.889-.266-2.814-.143.005-.964.001-1.929.002-2.895.718.034 1.443.075 2.155-.044.43-.076.917-.292 1.035-.754.066-.37.026-.791-.23-1.082-.291-.34-.751-.474-1.184-.5-1.064-.055-2.135.13-3.131.5-.036-.974.004-1.951-.023-2.926z" fill="#f9dc1c"/><path d="m52.291 1.022c2.781-.001 5.562-.001 8.342 0-.003 1.012 0 2.024-.002 3.036-1.488.012-2.977-.021-4.465.017.014.67.017 1.343-.001 2.014.844-.016 1.719-.143 2.533.149 1.164.39 2.068 1.431 2.339 2.623.258 1.15.19 2.425-.41 3.46-.564.97-1.603 1.564-2.665 1.838-1.917.477-3.929.219-5.808-.299-.028-1.005-.005-2.01-.013-3.015 1.206.304 2.506.601 3.727.208 1.016-.315 1.167-1.835.366-2.453-.481-.362-1.105-.45-1.69-.475-.656-.01-1.312.077-1.951.227-.136.026-.254.104-.362.185.031-.109.052-.22.061-.332-.003-2.393-.002-4.788-.001-7.183z" fill="#f9dc1c"/><path d="m16.02 11.374c-.265-.249-.336-.617-.368-.964h5.913c.002-.702.016-1.408-.093-2.104-.158-1.152-.564-2.338-1.438-3.144-.843-.778-2.03-1.06-3.151-1.028-1.483-.007-3.094.312-4.176 1.4-1.047 1.062-1.296 2.646-1.203 4.078.061 1.335.525 2.725 1.572 3.609 1.125.965 2.67 1.219 4.108 1.192 1.268-.023 2.551-.145 3.755-.568.007-.849-.001-1.698.007-2.546-.962.524-2.079.64-3.155.622-.616-.042-1.301-.102-1.771-.547zm.013-4.6c.34-.492 1.179-.523 1.517-.012.304.463.323 1.043.333 1.578-.741.001-1.481.001-2.222.001.02-.536.05-1.113.372-1.567z" fill="#027b5b"/><path d="m9.479 5.165c-.884-.988-2.376-1.258-3.61-.871-.688.213-1.215.735-1.619 1.31.011-1.867-.004-3.735.009-5.603-1.42-.002-2.839-.001-4.258 0-.001 4.731-.001 9.463 0 14.193h3.951c.012-.603.046-1.205.028-1.809.277.572.577 1.177 1.12 1.542.79.544 1.829.573 2.738.37.911-.202 1.68-.846 2.12-1.658.647-1.156.771-2.519.75-3.82-.038-1.297-.341-2.664-1.229-3.654zm-3.572 5.715c-.313.483-1.135.484-1.437-.012-.287-.461-.316-1.029-.319-1.557 0-.51-.001-1.032.15-1.525.096-.319.325-.624.664-.704.399-.129.872.069 1.053.451.261.516.252 1.115.26 1.68-.02.567-.048 1.178-.371 1.667z" fill="#027b5b"/><path d="m50.905 7.682c-.62-1.202-1.898-2.02-3.245-2.107-1.064-.065-2.211.094-3.073.768.038-.497.097-1.011.354-1.449.369-.652 1.092-1.027 1.817-1.125 1.195-.134 2.391.093 3.538.414.011-1.008-.009-2.016.011-3.023-1.409-.384-2.884-.405-4.332-.346-1.558.104-3.091.808-4.082 2.032-1.225 1.454-1.593 3.425-1.554 5.277.029 1.527.469 3.086 1.453 4.275.84 1.072 2.108 1.791 3.462 1.956 1.552.2 3.231-.088 4.485-1.066.854-.633 1.415-1.623 1.567-2.67.144-.987.062-2.039-.401-2.936zm-3.762 3.31c-.428.716-1.584.8-2.114.16-.457-.522-.5-1.278-.359-1.929.087-.459.366-.92.824-1.084.601-.22 1.367-.037 1.702.534.409.699.38 1.639-.053 2.319z" fill="#f9dc1c"/></svg>