<?xml version="1.0" encoding="utf-8"?>
<!-- Generator: Adobe Illustrator 23.1.0, SVG Export Plug-In . SVG Version: 6.00 Build 0)  -->
<svg version="1.1" id="Layer_1" xmlns="http://www.w3.org/2000/svg" xmlns:xlink="http://www.w3.org/1999/xlink" x="0px" y="0px"
	 viewBox="0 0 61.18 14.414" enable-background="new 0 0 61.18 14.414" xml:space="preserve">
<g>
	<path fill="#027B5B" d="M23.373,2.071c1.422-0.458,2.825-0.974,4.247-1.431c-0.012,1.239-0.004,2.479-0.005,3.718
		c0.646,0,1.293-0.001,1.941-0.001c-0.008,0.938-0.001,1.875-0.006,2.812c-0.647,0.011-1.296-0.017-1.942,0.015
		c0.02,0.973-0.011,1.946,0.015,2.919c0.011,0.433,0.198,0.923,0.628,1.095c0.434,0.094,0.886,0.007,1.306-0.119
		c-0.009,0.94-0.005,1.881-0.004,2.821c-1.187,0.369-2.448,0.63-3.692,0.45c-0.752-0.11-1.472-0.513-1.885-1.161
		c-0.462-0.701-0.587-1.56-0.618-2.382c-0.003-1.213,0-2.425-0.001-3.637c-0.496,0.001-0.991-0.006-1.486,0.01
		c-0.018-0.941-0.006-1.882-0.006-2.824c0.497,0.003,0.994,0.001,1.492,0.001C23.367,3.595,23.336,2.832,23.373,2.071L23.373,2.071z
		"/>
	<path fill="#F9DC1C" d="M30.569,1.315c1.382-0.51,2.883-0.533,4.339-0.516c1.32,0.056,2.685,0.439,3.69,1.33
		c1.328,1.163,1.383,3.55-0.014,4.677c-0.357,0.301-0.781,0.51-1.223,0.654c0.641,0.225,1.28,0.532,1.722,1.067
		c0.709,0.819,0.822,2.003,0.566,3.022c-0.231,0.934-0.933,1.692-1.778,2.122c-1.534,0.832-3.348,0.815-5.038,0.651
		c-0.793-0.075-1.574-0.234-2.342-0.441c-0.032-1.021,0-2.044-0.016-3.064c1.318,0.437,2.763,0.727,4.138,0.398
		c0.922-0.233,0.969-1.665,0.146-2.056c-0.87-0.433-1.889-0.266-2.814-0.143c0.005-0.964,0.001-1.929,0.002-2.895
		c0.718,0.034,1.443,0.075,2.155-0.044c0.43-0.076,0.917-0.292,1.035-0.754c0.066-0.37,0.026-0.791-0.23-1.082
		c-0.291-0.34-0.751-0.474-1.184-0.5c-1.064-0.055-2.135,0.13-3.131,0.5C30.556,3.267,30.596,2.29,30.569,1.315L30.569,1.315z"/>
	<path fill="#F9DC1C" d="M52.291,1.022c2.781-0.001,5.562-0.001,8.342,0c-0.003,1.012,0,2.024-0.002,3.036
		c-1.488,0.012-2.977-0.021-4.465,0.017c0.014,0.67,0.017,1.343-0.001,2.014c0.844-0.016,1.719-0.143,2.533,0.149
		c1.164,0.39,2.068,1.431,2.339,2.623c0.258,1.15,0.19,2.425-0.41,3.46c-0.564,0.97-1.603,1.564-2.665,1.838
		c-1.917,0.477-3.929,0.219-5.808-0.299c-0.028-1.005-0.005-2.01-0.013-3.015c1.206,0.304,2.506,0.601,3.727,0.208
		c1.016-0.315,1.167-1.835,0.366-2.453c-0.481-0.362-1.105-0.45-1.69-0.475c-0.656-0.01-1.312,0.077-1.951,0.227
		c-0.136,0.026-0.254,0.104-0.362,0.185c0.031-0.109,0.052-0.22,0.061-0.332C52.289,5.812,52.29,3.417,52.291,1.022L52.291,1.022z"
		/>
	<path fill="#027B5B" d="M16.02,11.374c-0.265-0.249-0.336-0.617-0.368-0.964c1.971,0,3.941,0,5.913,0
		c0.002-0.702,0.016-1.408-0.093-2.104c-0.158-1.152-0.564-2.338-1.438-3.144c-0.843-0.778-2.03-1.06-3.151-1.028
		c-1.483-0.007-3.094,0.312-4.176,1.4c-1.047,1.062-1.296,2.646-1.203,4.078c0.061,1.335,0.525,2.725,1.572,3.609
		c1.125,0.965,2.67,1.219,4.108,1.192c1.268-0.023,2.551-0.145,3.755-0.568c0.007-0.849-0.001-1.698,0.007-2.546
		c-0.962,0.524-2.079,0.64-3.155,0.622C17.175,11.879,16.49,11.819,16.02,11.374z M16.033,6.774c0.34-0.492,1.179-0.523,1.517-0.012
		c0.304,0.463,0.323,1.043,0.333,1.578c-0.741,0.001-1.481,0.001-2.222,0.001C15.681,7.805,15.711,7.228,16.033,6.774z"/>
	<path fill="#027B5B" d="M9.479,5.165c-0.884-0.988-2.376-1.258-3.61-0.871C5.181,4.507,4.654,5.029,4.25,5.604
		c0.011-1.867-0.004-3.735,0.009-5.603C2.839-0.001,1.42,0,0.001,0.001C0,4.732,0,9.464,0.001,14.194c1.317,0,2.634,0,3.951,0
		c0.012-0.603,0.046-1.205,0.028-1.809c0.277,0.572,0.577,1.177,1.12,1.542c0.79,0.544,1.829,0.573,2.738,0.37
		c0.911-0.202,1.68-0.846,2.12-1.658c0.647-1.156,0.771-2.519,0.75-3.82C10.67,7.522,10.367,6.155,9.479,5.165z M5.907,10.88
		c-0.313,0.483-1.135,0.484-1.437-0.012c-0.287-0.461-0.316-1.029-0.319-1.557c0-0.51-0.001-1.032,0.15-1.525
		c0.096-0.319,0.325-0.624,0.664-0.704c0.399-0.129,0.872,0.069,1.053,0.451c0.261,0.516,0.252,1.115,0.26,1.68
		C6.258,9.78,6.23,10.391,5.907,10.88z"/>
	<path fill="#F9DC1C" d="M50.905,7.682c-0.62-1.202-1.898-2.02-3.245-2.107c-1.064-0.065-2.211,0.094-3.073,0.768
		c0.038-0.497,0.097-1.011,0.354-1.449c0.369-0.652,1.092-1.027,1.817-1.125c1.195-0.134,2.391,0.093,3.538,0.414
		c0.011-1.008-0.009-2.016,0.011-3.023c-1.409-0.384-2.884-0.405-4.332-0.346c-1.558,0.104-3.091,0.808-4.082,2.032
		C40.668,4.3,40.3,6.271,40.339,8.123c0.029,1.527,0.469,3.086,1.453,4.275c0.84,1.072,2.108,1.791,3.462,1.956
		c1.552,0.2,3.231-0.088,4.485-1.066c0.854-0.633,1.415-1.623,1.567-2.67C51.45,9.631,51.368,8.579,50.905,7.682z M47.143,10.992
		c-0.428,0.716-1.584,0.8-2.114,0.16c-0.457-0.522-0.5-1.278-0.359-1.929c0.087-0.459,0.366-0.92,0.824-1.084
		c0.601-0.22,1.367-0.037,1.702,0.534C47.605,9.372,47.576,10.312,47.143,10.992z"/>
</g>
</svg>
