<svg enable-background="new 0 0 273 68.6" viewBox="0 0 273 68.6" xmlns="http://www.w3.org/2000/svg"><g fill="#c42126"><path d="m20.5 54.3c-11.2 0-20.5-7.7-20.5-17.6v-33.7c0-1.8 1.7-3 3.4-3 4.8 0 9.2 3.5 9.2 7.9v12.7c3.1-1.8 6.9-2.8 9.7-2.8h12.6c11.1 0 20.4 7.8 20.4 17.7v1.1c0 9.9-9.3 17.7-20.4 17.7zm13.6-26.3h-10.9c-6.7 0-10.5 3.7-10.5 8.2v.5c0 4.1 3.6 7.6 8.6 7.6h12.8c5 0 8.6-3.4 8.6-7.6v-1.1c0-4.2-3.6-7.6-8.6-7.6z"/><path d="m74.8 54.3c-11.2 0-20.5-7.5-20.5-17.2v-1.1c0-9.6 9.3-17.2 20.5-17.2h14.4c11.1 0 20.4 7.5 20.4 17.2v1.1c0 9.6-9.3 17.2-20.4 17.2zm13.6-25.5h-12.9c-5.1 0-8.6 3.3-8.6 7.3v1.1c0 4 3.6 7.3 8.6 7.3h12.8c5 0 8.6-3.3 8.6-7.3v-1.1c.1-4-3.6-7.3-8.5-7.3z"/><path d="m129 54.3c-11.2 0-20.5-7.8-20.5-17.7v-1c0-9.9 9.3-17.7 20.5-17.7h12.6c2.8 0 6.6 1 9.6 2.8v-12.8c0-4.4 4.4-7.9 9.3-7.9 1.7 0 3.3 1.2 3.3 3v33.7c0 9.9-9.3 17.7-20.4 17.7h-14.4zm11.6-26.3h-10.8c-5.1 0-8.6 3.4-8.6 7.6v1.1c0 4.1 3.6 7.6 8.6 7.6h12.8c5 0 8.6-3.4 8.6-7.6v-.5c0-4.5-3.8-8.2-10.6-8.2z"/><path d="m184 54.3c-11.2 0-20.5-7.5-20.5-17.2v-1.1c0-9.6 9.3-17.2 20.5-17.2h14.4c11.1 0 20.4 7.5 20.4 17.2v1.1c0 9.6-9.3 17.2-20.4 17.2zm13.6-25.5h-12.8c-5.1 0-8.6 3.3-8.6 7.3v1.1c0 4 3.6 7.3 8.6 7.3h12.8c5 0 8.6-3.3 8.6-7.3v-1.1c0-4-3.6-7.3-8.6-7.3z"/><path d="m250.8 55.2h-12.6c-11.2 0-20.5-7.8-20.5-17.6v-1.1c0-9.8 9.3-17.6 20.5-17.6h14.4c11.1 0 20.4 7.8 20.4 17.6v14.5c0 9.8-9.3 17.6-20.4 17.6h-17.7c-4.1 0-8.6-3.5-8.6-7.1 0-1.8 1.6-3 3.3-3h22.1c4.3 0 7.6-2.6 8.4-6-2.9 1.7-6.6 2.7-9.3 2.7zm1-26.2h-12.8c-5.1 0-8.6 3.4-8.6 7.5v1.1c0 4.1 3.6 7.5 8.6 7.5h10.8c6.8 0 10.6-3.7 10.6-8.1v-.5c0-4.1-3.6-7.5-8.6-7.5z"/></g></svg>