<svg enable-background="new 0 0 417.7 117.7" viewBox="0 0 417.7 117.7" xmlns="http://www.w3.org/2000/svg"><path d="m23.7 24.5c1.9-.6 3.8-1 5.8-1.3 2.3-.3 4.7-.5 7-.5 4.4-.1 8.8.8 12.9 2.6 3.7 1.6 6.9 4 9.6 7 2.6 3.1 4.6 6.7 5.9 10.6 1.4 4.2 2 8.6 2 13 .1 5.5-.8 10.9-2.8 16-1.7 4.3-4.4 8.1-7.8 11.2-3.5 3-7.5 5.2-11.9 6.6-4.9 1.5-9.9 2.2-15 2.2-5.4.1-10.9-.4-16.2-1.5-4.5-1-8.9-2.3-13.2-3.9v-86.5h23.7zm0 49.1c2 .6 4.1.8 6.2.8 3.8.1 7.4-1.4 9.9-4.3s3.8-7.2 3.8-13.1c0-5.7-1.2-9.9-3.7-12.6-2.4-2.7-5.8-4.2-9.4-4.1-1.2 0-2.4.1-3.5.3s-2.2.5-3.2.9v32.1z"/><path d="m92.8 61.8c.2 4 1.5 7.1 3.9 9.3 2.5 2.3 5.8 3.5 9.2 3.3 2.6.1 5.3-.5 7.7-1.6 2.3-1.2 4.3-2.9 5.9-5l14.5 11.4c-1.5 1.8-3.2 3.5-5 5-4.3 3.4-9.3 5.7-14.7 6.7-3.5.7-7 1-10.5.9-4.5 0-9-.7-13.2-2.2-8.3-2.8-14.9-9.1-18.1-17.2-1.9-4.8-2.8-9.9-2.7-15-.1-5 .8-10 2.6-14.7 1.6-4.1 3.9-7.8 7-10.9 3-3 6.7-5.4 10.8-6.8 4.3-1.6 8.8-2.4 13.4-2.3 9.9 0 17.7 3.2 23.5 9.6s8.8 16.2 8.9 29.5zm20.7-12.6c-.1-3.1-1.2-6-3.2-8.3-1.7-2-4.1-3.1-6.7-3.1-2.7 0-5.3 1.2-7.1 3.2-2.1 2.3-3.4 5.2-3.6 8.3z"/><path d="m135.2 40.8v-16.5h9.4v-16.7h23.7v16.7h10.1l5.9 16.5h-15.9v26.6c-.1 1.8.2 3.6.7 5.3.5 1.3 1.6 1.9 3.3 1.9 1.6 0 3.2-.4 4.6-1.1s2.8-1.5 4-2.4l6.1 14.4c-3 2.1-6.2 3.7-9.7 4.8-3.9 1.1-8 1.7-12.1 1.6-3.3.1-6.7-.4-9.8-1.6-2.5-.9-4.7-2.4-6.4-4.4s-2.9-4.4-3.5-6.9c-.7-3-1-6-1-9.1v-29z"/><path d="m205.5 90.4-29.3-82.8h22.9l17 51.8 10.2-35.1h15.4l10.2 35.1 9.7-35.1h24.3l-23.5 66.1h-18.1l-10.5-34.7-10.3 34.7z"/><path d="m323.1 90.4-1.9-5.2c-2.1 1.9-4.6 3.4-7.3 4.4-3.4 1.3-7.1 1.9-10.7 1.8-2.9 0-5.8-.4-8.5-1.3-2.5-.9-4.9-2.2-6.8-4s-3.5-3.9-4.5-6.3c-1.1-2.7-1.7-5.5-1.6-8.4-.2-5.7 2.3-11.2 6.8-14.8 2.2-1.8 4.7-3.2 7.4-4.2 2.9-1.1 5.9-1.9 8.9-2.3 2.9-.5 5.6-.8 8.1-1s4.8-.4 6.9-.5v-1.6c0-2.7-.9-4.7-2.6-6-1.8-1.3-3.9-2-6.1-1.9-2.5 0-5.1.5-7.4 1.5-2.4 1.1-4.6 2.5-6.7 4.1l-10.7-11.7c3.6-3.2 7.7-5.7 12.1-7.5 5.1-1.9 10.6-2.8 16.1-2.7 8.7 0 15.6 2.1 20.7 6.3s7.7 10.7 7.7 19.6v41.7zm-3.4-30c-1.4.1-2.7.2-4.1.3s-2.8.3-4.2.6c-2.8.5-4.8 1.4-6 2.9-1.2 1.4-1.8 3.2-1.8 5s.7 3.5 2 4.7c1.5 1.3 3.5 2 5.5 1.8 1.6 0 3.2-.3 4.7-.8 1.4-.5 2.7-1.3 3.9-2.2z"/><path d="m349.1 97.8c1.4.8 2.9 1.4 4.5 1.9 1.5.5 3.1.8 4.7.8 1.4.1 2.9-.3 4.1-1 1.2-.8 2.1-2 2.6-3.4l3.8-8.5-28.1-63.3h25.8l13.5 38.6 13.3-38.6h24.4l-33.1 78.4c-2.3 5.5-5.5 9.4-9.6 11.7-4.3 2.3-9.2 3.5-14.2 3.4-3.2 0-6.4-.3-9.5-1.1-2.8-.7-5.6-1.7-8.3-2.8z"/></svg>