<?xml version="1.0" encoding="utf-8"?>
<!-- Generator: Adobe Illustrator 23.1.0, SVG Export Plug-In . SVG Version: 6.00 Build 0)  -->
<svg version="1.1" id="Layer_1" xmlns="http://www.w3.org/2000/svg" xmlns:xlink="http://www.w3.org/1999/xlink" x="0px" y="0px"
	 viewBox="0 0 157 80" style="enable-background:new 0 0 157 80;" xml:space="preserve">
<style type="text/css">
	.st0{fill-rule:evenodd;clip-rule:evenodd;fill:#FFFFFF;}
	.st1{fill-rule:evenodd;clip-rule:evenodd;fill:#BF0816;}
</style>
<g>
	<path class="st0" d="M82.4,29.9C82.1,29.3,82,28.7,82,28c0-0.7,0.1-1.3,0.4-1.9c0.3-0.6,0.6-1.1,1.1-1.6c0.5-0.5,1-0.8,1.6-1.1
		c0.6-0.3,1.3-0.4,1.9-0.4c1,0,1.9,0.2,2.7,0.8c0.8,0.5,1.4,1.2,1.9,2l-2.2,1c-0.2-0.4-0.5-0.8-0.9-1c-0.4-0.2-0.9-0.4-1.3-0.4
		c-0.7,0-1.3,0.3-1.8,0.8c-0.5,0.5-0.8,1.2-0.8,1.9c0,0.7,0.3,1.3,0.8,1.9c0.5,0.5,1.1,0.8,1.8,0.8c1,0,1.8-0.5,2.3-1.4l2.2,1
		c-0.4,0.8-1.1,1.5-1.9,2C88.9,32.7,88,33,87.1,33c-0.7,0-1.3-0.1-1.9-0.4c-0.6-0.3-1.2-0.6-1.6-1.1C83,31.1,82.7,30.5,82.4,29.9z
		 M93.4,32.8l3.9-9.6h2.4l3.9,9.6h-2.7l-0.5-1.4h-3.8l-0.5,1.4H93.4z M97.4,29.2h2.1l-1-2.8L97.4,29.2L97.4,29.2z M106.8,32.8v-9.6
		h2.1l4.3,5.4v-5.4h2.4v9.6h-2.1l-4.3-5.4v5.4H106.8z M118.8,32.8l3.9-9.6h2.4l3.9,9.6h-2.7l-0.5-1.4H122l-0.5,1.4H118.8z
		 M122.9,29.2h2.1l-1-2.8L122.9,29.2L122.9,29.2z M132.2,32.8v-9.6h4.4c0.7,0,1.4,0.1,2,0.4c0.5,0.2,1,0.6,1.4,1
		c0.4,0.4,0.6,1,0.8,1.5c0.2,0.6,0.3,1.2,0.3,1.9c0,0.5-0.1,1-0.2,1.5c-0.1,0.5-0.3,0.9-0.6,1.3c-0.2,0.4-0.6,0.8-0.9,1
		c-0.4,0.3-0.8,0.5-1.3,0.7c-0.5,0.2-1.1,0.3-1.6,0.2H132.2z M134.7,30.4h1.8c0.7,0,1.3-0.2,1.6-0.7c0.4-0.4,0.6-1,0.6-1.8
		c0-0.7-0.2-1.3-0.6-1.8c-0.4-0.4-0.9-0.7-1.6-0.7h-1.8V30.4L134.7,30.4z M142.9,32.8l3.9-9.6h2.4l3.9,9.6h-2.7l-0.5-1.4h-3.8
		l-0.5,1.4H142.9L142.9,32.8z M146.9,29.2h2.1l-1-2.8L146.9,29.2L146.9,29.2z M82,43v-0.1h2.4V43c0,0.2,0.1,0.4,0.4,0.6
		c0.3,0.2,0.7,0.3,1.2,0.3c0.4,0,0.7-0.1,0.9-0.2c0.2-0.1,0.3-0.3,0.3-0.4c0-0.2-0.1-0.4-0.4-0.5c-0.2-0.1-0.7-0.3-1.3-0.5
		c-0.3-0.1-0.5-0.2-0.7-0.2c-0.2-0.1-0.5-0.2-0.7-0.3c-0.2-0.1-0.5-0.2-0.7-0.3c-0.2-0.1-0.4-0.3-0.6-0.4c-0.2-0.2-0.4-0.3-0.5-0.5
		c-0.3-0.4-0.4-0.9-0.4-1.4c0-0.9,0.3-1.6,1-2.2c0.7-0.5,1.6-0.8,2.7-0.8c0.8,0,1.4,0.1,2,0.4s1.1,0.6,1.4,1.1
		c0.3,0.5,0.5,1.1,0.5,1.6v0.1h-2.4v-0.1c0-0.3-0.1-0.5-0.4-0.7c-0.3-0.2-0.6-0.3-1.1-0.3c-0.4,0-0.7,0.1-0.9,0.2
		c-0.2,0.1-0.3,0.3-0.3,0.5c0,0.2,0.1,0.3,0.3,0.5c0.2,0.1,0.6,0.3,1.3,0.5c0.8,0.3,1.5,0.6,1.9,0.8c1.1,0.7,1.7,1.5,1.7,2.6
		c0,0.6-0.2,1.1-0.5,1.6s-0.8,0.8-1.4,1c-0.6,0.2-1.2,0.3-2,0.3c-0.8,0-1.5-0.1-2.1-0.3c-0.6-0.2-1.1-0.6-1.5-1
		C82.2,44.2,82,43.6,82,43L82,43z M93.6,45.8v-9.6h4.3c0.6,0,1.2,0.1,1.7,0.3c0.5,0.2,0.9,0.5,1.2,0.8s0.5,0.7,0.7,1.2
		c0.2,0.4,0.2,0.9,0.2,1.4c0,0.5-0.1,1-0.2,1.5c-0.2,0.4-0.4,0.8-0.7,1.2c-0.3,0.3-0.7,0.6-1.2,0.8c-0.5,0.2-1,0.3-1.7,0.3H96v2.2
		L93.6,45.8L93.6,45.8z M96,41.4h1.7c0.5,0,0.8-0.1,1.1-0.4c0.2-0.3,0.3-0.6,0.3-1.1c0-0.4-0.1-0.8-0.3-1c-0.2-0.3-0.6-0.4-1.1-0.4
		H96C96,38.4,96,41.4,96,41.4z M105,42.9c-0.3-0.6-0.4-1.3-0.4-1.9c0-0.7,0.1-1.3,0.4-1.9c0.3-0.6,0.6-1.1,1.1-1.6
		c0.5-0.5,1-0.8,1.6-1.1c0.6-0.3,1.3-0.4,2-0.4c0.7,0,1.4,0.1,2,0.4c0.6,0.2,1.2,0.6,1.6,1.1c0.5,0.4,0.8,1,1.1,1.6s0.4,1.3,0.4,1.9
		s-0.1,1.3-0.4,1.9c-0.3,0.6-0.6,1.1-1.1,1.6c-0.5,0.5-1,0.8-1.6,1.1c-0.6,0.3-1.3,0.4-2,0.4c-0.7,0-1.3-0.1-2-0.4
		c-0.6-0.3-1.2-0.6-1.6-1.1C105.6,44.1,105.3,43.5,105,42.9z M107.9,39.1c-0.5,0.5-0.8,1.2-0.8,1.9c0,0.7,0.3,1.3,0.8,1.9
		c0.5,0.5,1.1,0.8,1.9,0.8c0.7,0,1.4-0.3,1.9-0.8c0.5-0.5,0.8-1.1,0.8-1.9s-0.3-1.3-0.8-1.9c-0.5-0.5-1.1-0.8-1.9-0.8
		C109,38.4,108.4,38.6,107.9,39.1z M118.4,45.8v-9.6h4.7c0.6,0,1.1,0.1,1.6,0.3c0.5,0.2,0.8,0.4,1.1,0.8c0.3,0.3,0.5,0.7,0.7,1.1
		c0.1,0.4,0.2,0.9,0.2,1.4c0,0.7-0.2,1.3-0.5,1.9c-0.3,0.6-0.8,1-1.4,1.3l2.1,2.9h-3l-1.8-2.6h-1.3v2.6
		C120.8,45.8,118.4,45.8,118.4,45.8z M120.8,41h2.1c0.5,0,0.8-0.1,1-0.4c0.2-0.2,0.3-0.5,0.3-0.9c0-0.4-0.1-0.7-0.3-0.9
		c-0.2-0.2-0.6-0.3-1-0.3h-2.1L120.8,41L120.8,41z M129.6,38.6v-2.4h8.5v2.4h-3v7.2h-2.5v-7.2H129.6z M141.1,43v-0.1h2.4V43
		c0,0.2,0.1,0.4,0.4,0.6s0.7,0.3,1.2,0.3c0.4,0,0.7-0.1,0.9-0.2c0.2-0.1,0.3-0.3,0.3-0.4c0-0.2-0.1-0.4-0.4-0.5s-0.7-0.3-1.3-0.5
		c-0.3-0.1-0.5-0.2-0.7-0.2c-0.2-0.1-0.5-0.2-0.7-0.3c-0.2-0.1-0.5-0.2-0.7-0.3c-0.2-0.1-0.4-0.3-0.6-0.4c-0.2-0.2-0.4-0.3-0.5-0.5
		c-0.3-0.4-0.4-0.9-0.4-1.4c0-0.9,0.4-1.6,1-2.2s1.6-0.8,2.7-0.8c0.8,0,1.4,0.1,2,0.4c0.6,0.2,1.1,0.6,1.4,1.1
		c0.3,0.5,0.5,1.1,0.5,1.6v0.1h-2.4v-0.1c0-0.3-0.1-0.5-0.4-0.7c-0.3-0.2-0.6-0.3-1.1-0.3c-0.4,0-0.7,0.1-0.9,0.2
		c-0.2,0.1-0.3,0.3-0.3,0.5c0,0.2,0.1,0.3,0.3,0.5s0.6,0.3,1.3,0.5c0.8,0.3,1.5,0.6,1.9,0.8c1.1,0.7,1.7,1.5,1.7,2.6
		c0,0.6-0.2,1.1-0.5,1.6c-0.3,0.4-0.8,0.8-1.4,1c-0.6,0.2-1.2,0.3-2,0.3c-0.8,0-1.5-0.1-2.1-0.3s-1.1-0.6-1.5-1
		C141.2,44.2,141.1,43.6,141.1,43L141.1,43z M83,57.8v-9.6h4.8c1,0,1.8,0.2,2.3,0.7c0.5,0.5,0.8,1.1,0.8,1.9c0,0.9-0.4,1.6-1.2,2
		c0.5,0.2,0.9,0.5,1.2,0.8c0.3,0.4,0.4,0.8,0.4,1.4c0,0.8-0.3,1.5-0.8,2c-0.6,0.5-1.3,0.8-2.3,0.8H83z M85.5,55.6h2.5
		c0.6,0,0.9-0.3,0.9-0.9c0-0.5-0.3-0.8-0.9-0.8h-2.5V55.6z M85.5,52h2c0.6,0,0.9-0.3,0.9-0.8c0-0.2-0.1-0.4-0.2-0.6
		c-0.1-0.1-0.3-0.2-0.6-0.2h-2.2C85.5,50.4,85.5,52,85.5,52z M94.9,57.8v-9.6h7.4v2.4h-4.9V52h4v2.2h-4v1.2h4.9v2.4L94.9,57.8
		L94.9,57.8z M105.3,50.6v-2.4h8.4v2.4h-3v7.2h-2.5v-7.2H105.3L105.3,50.6z M117,50.6v-2.4h8.4v2.4h-3v7.2H120v-7.2H117z
		 M128.8,57.8v-9.6h2.5v9.6H128.8z M135.2,57.8v-9.6h2.1l4.3,5.4v-5.4h2.4v9.6H142l-4.3-5.4v5.4H135.2z M148,54.9
		c-0.3-0.6-0.4-1.3-0.4-1.9c0-0.7,0.1-1.3,0.4-1.9c0.3-0.6,0.6-1.1,1.1-1.6c0.5-0.5,1-0.8,1.6-1.1c0.6-0.3,1.3-0.4,2-0.4
		c0.8,0,1.6,0.2,2.3,0.5c0.7,0.3,1.3,0.9,1.8,1.5l-2,1.4c-0.2-0.3-0.6-0.6-0.9-0.7c-0.4-0.2-0.8-0.3-1.1-0.3c-0.7,0-1.3,0.3-1.8,0.8
		c-0.5,0.5-0.8,1.2-0.8,1.9c0,0.7,0.3,1.3,0.8,1.9c0.5,0.5,1.1,0.8,1.8,0.8c0.4,0,0.8-0.1,1.2-0.3c0.4-0.2,0.7-0.5,0.9-0.8v-0.3
		h-2.3v-2h4.6v5.6h-1.9v-0.9c-0.2,0.3-0.6,0.6-1,0.8c-0.4,0.2-0.9,0.3-1.4,0.3c-0.7,0-1.3-0.1-2-0.4c-0.6-0.3-1.2-0.6-1.6-1.1
		C148.6,56.1,148.2,55.5,148,54.9L148,54.9z"/>
	<path class="st1" d="M0,80h68V0H0V80z"/>
	<g>
		<path class="st0" d="M39.7,45.7c-2.4,0.5-4.8,1.1-7.2,1.7l0,0c-1.6,0.4-3.3,0.8-4.9,1.1c-0.4,0.1-0.8,0.1-1.2,0.2
			c-4.1,0.3-6.1-0.7-7.4-1.9c-4.4-4.2-3.4-11.6,2.4-13.8c3.9-1.5,2.8-1,6.9-2c2.3-0.6,4.6-1.1,6.9-1.7c2.3-0.6,3.6-2.7,3.1-4.9
			c-0.4-1.9-2.9-3.6-5.1-3.1c-2.4,0.5-4.8,1.1-7.2,1.7l0.1,0.4c-0.2-0.8,0,0-0.1-0.4c0,0-1.3,0.2-6.1,1.5
			c-6.5,1.8-11.6,7.9-12.3,14.5c-0.6,5.5,2.8,12.4,7.4,15.5c1,0.7,5.2,3.9,12.2,2.7c2.5-0.5,5-1.1,7.4-1.7l0,0
			c2.3-0.6,4.6-1.1,6.9-1.7c2.3-0.6,3.6-2.7,3.1-4.9C44.3,46.8,41.9,45.2,39.7,45.7"/>
		<path class="st0" d="M52,34.6c-0.4-0.2-1.6-0.7-3.3-1.1c1-1.9,1.6-4.1,1.9-6.4c0.6-5.5-2.8-12.4-7.4-15.5c-1-0.7-5.6-3.6-11-2.7
			c-2.5,0.5-5,1-7.4,1.5l0,0c-2.3,0.6-4.6,1.1-6.9,1.7c-2.3,0.6-3.6,2.7-3.1,4.9c0.4,1.9,2.9,3.6,5.1,3.1c2.4-0.5,4.8-1.1,7.2-1.7
			l0,0c1.6-0.4,3.3-0.8,4.9-1.1c0.4-0.1,0.8-0.1,1.2-0.2c4.1-0.3,6.1,0.7,7.4,1.9c4.4,4.2,3.4,11.6-2.4,13.8c-1.4,0.5-2.1,0.8-2.7,1
			c-1.3,0.3-2.6,0.6-4,0.9L31.2,35c-2.3,0.6-4.6,1.1-6.9,1.7c-2.3,0.6-3.6,2.7-3.1,4.9c0,0,0,0,0,0c0,0,0,0,0,0
			c0.1,0.3,0.2,0.6,0.3,0.8c0.8,1.5,2.9,2.6,4.7,2.2c2.4-0.5,4.7-1.1,7.1-1.6l0.1,0c1.6-0.4,3.2-0.7,4.8-1.2
			c6.4-1.8,10,0.7,11.3,1.9c4.4,4.3,2.5,12.1-5,14c-4.2,1.3-2.9,0.6-7,1.7c-2.3,0.6-4.6,1.1-7,1.7c-2.3,0.6-3.6,2.7-3.1,4.9
			c0.4,1.9,2.9,3.6,5.1,3.1c2.4-0.5,4.8-1.1,7.2-1.7c0,0-0.1-0.4,0,0c0,0,1.3-0.2,6.1-1.5c9.6-2.1,14.5-8.6,15.2-15.2
			C61.8,45.4,60.3,39.1,52,34.6"/>
	</g>
</g>
</svg>
