<svg enable-background="new 0 0 157 80" viewBox="0 0 157 80" xmlns="http://www.w3.org/2000/svg"><g clip-rule="evenodd" fill-rule="evenodd"><path d="m82.4 29.9c-.3-.6-.4-1.2-.4-1.9s.1-1.3.4-1.9.6-1.1 1.1-1.6 1-.8 1.6-1.1 1.3-.4 1.9-.4c1 0 1.9.2 2.7.8.8.5 1.4 1.2 1.9 2l-2.2 1c-.2-.4-.5-.8-.9-1s-.9-.4-1.3-.4c-.7 0-1.3.3-1.8.8s-.8 1.2-.8 1.9.3 1.3.8 1.9c.5.5 1.1.8 1.8.8 1 0 1.8-.5 2.3-1.4l2.2 1c-.4.8-1.1 1.5-1.9 2-.9.3-1.8.6-2.7.6-.7 0-1.3-.1-1.9-.4s-1.2-.6-1.6-1.1c-.6-.4-.9-1-1.2-1.6zm11 2.9 3.9-9.6h2.4l3.9 9.6h-2.7l-.5-1.4h-3.8l-.5 1.4zm4-3.6h2.1l-1-2.8zm9.4 3.6v-9.6h2.1l4.3 5.4v-5.4h2.4v9.6h-2.1l-4.3-5.4v5.4zm12 0 3.9-9.6h2.4l3.9 9.6h-2.7l-.5-1.4h-3.8l-.5 1.4zm4.1-3.6h2.1l-1-2.8zm9.3 3.6v-9.6h4.4c.7 0 1.4.1 2 .4.5.2 1 .6 1.4 1s.6 1 .8 1.5c.2.6.3 1.2.3 1.9 0 .5-.1 1-.2 1.5s-.3.9-.6 1.3c-.2.4-.6.8-.9 1-.4.3-.8.5-1.3.7s-1.1.3-1.6.2h-4.3zm2.5-2.4h1.8c.7 0 1.3-.2 1.6-.7.4-.4.6-1 .6-1.8 0-.7-.2-1.3-.6-1.8-.4-.4-.9-.7-1.6-.7h-1.8zm8.2 2.4 3.9-9.6h2.4l3.9 9.6h-2.7l-.5-1.4h-3.8l-.5 1.4zm4-3.6h2.1l-1-2.8zm-64.9 13.8v-.1h2.4v.1c0 .2.1.4.4.6s.7.3 1.2.3c.4 0 .7-.1.9-.2s.3-.3.3-.4c0-.2-.1-.4-.4-.5-.2-.1-.7-.3-1.3-.5-.3-.1-.5-.2-.7-.2-.2-.1-.5-.2-.7-.3s-.5-.2-.7-.3-.4-.3-.6-.4c-.2-.2-.4-.3-.5-.5-.3-.4-.4-.9-.4-1.4 0-.9.3-1.6 1-2.2.7-.5 1.6-.8 2.7-.8.8 0 1.4.1 2 .4s1.1.6 1.4 1.1.5 1.1.5 1.6v.1h-2.4v-.1c0-.3-.1-.5-.4-.7s-.6-.3-1.1-.3c-.4 0-.7.1-.9.2s-.3.3-.3.5.1.3.3.5c.2.1.6.3 1.3.5.8.3 1.5.6 1.9.8 1.1.7 1.7 1.5 1.7 2.6 0 .6-.2 1.1-.5 1.6s-.8.8-1.4 1-1.2.3-2 .3-1.5-.1-2.1-.3-1.1-.6-1.5-1c.1-.8-.1-1.4-.1-2zm11.6 2.8v-9.6h4.3c.6 0 1.2.1 1.7.3s.9.5 1.2.8.5.7.7 1.2c.2.4.2.9.2 1.4s-.1 1-.2 1.5c-.2.4-.4.8-.7 1.2-.3.3-.7.6-1.2.8s-1 .3-1.7.3h-1.9v2.2zm2.4-4.4h1.7c.5 0 .8-.1 1.1-.4.2-.3.3-.6.3-1.1 0-.4-.1-.8-.3-1-.2-.3-.6-.4-1.1-.4h-1.7c0-.1 0 2.9 0 2.9zm9 1.5c-.3-.6-.4-1.3-.4-1.9 0-.7.1-1.3.4-1.9s.6-1.1 1.1-1.6 1-.8 1.6-1.1 1.3-.4 2-.4 1.4.1 2 .4c.6.2 1.2.6 1.6 1.1.5.4.8 1 1.1 1.6s.4 1.3.4 1.9-.1 1.3-.4 1.9-.6 1.1-1.1 1.6-1 .8-1.6 1.1-1.3.4-2 .4-1.3-.1-2-.4c-.6-.3-1.2-.6-1.6-1.1-.5-.4-.8-1-1.1-1.6zm2.9-3.8c-.5.5-.8 1.2-.8 1.9s.3 1.3.8 1.9c.5.5 1.1.8 1.9.8.7 0 1.4-.3 1.9-.8s.8-1.1.8-1.9-.3-1.3-.8-1.9c-.5-.5-1.1-.8-1.9-.8-.8.1-1.4.3-1.9.8zm10.5 6.7v-9.6h4.7c.6 0 1.1.1 1.6.3s.8.4 1.1.8c.3.3.5.7.7 1.1.1.4.2.9.2 1.4 0 .7-.2 1.3-.5 1.9s-.8 1-1.4 1.3l2.1 2.9h-3l-1.8-2.6h-1.3v2.6c0-.1-2.4-.1-2.4-.1zm2.4-4.8h2.1c.5 0 .8-.1 1-.4.2-.2.3-.5.3-.9s-.1-.7-.3-.9-.6-.3-1-.3h-2.1zm8.8-2.4v-2.4h8.5v2.4h-3v7.2h-2.5v-7.2zm11.5 4.4v-.1h2.4v.1c0 .2.1.4.4.6s.7.3 1.2.3c.4 0 .7-.1.9-.2s.3-.3.3-.4c0-.2-.1-.4-.4-.5s-.7-.3-1.3-.5c-.3-.1-.5-.2-.7-.2-.2-.1-.5-.2-.7-.3s-.5-.2-.7-.3-.4-.3-.6-.4c-.2-.2-.4-.3-.5-.5-.3-.4-.4-.9-.4-1.4 0-.9.4-1.6 1-2.2s1.6-.8 2.7-.8c.8 0 1.4.1 2 .4.6.2 1.1.6 1.4 1.1s.5 1.1.5 1.6v.1h-2.4v-.1c0-.3-.1-.5-.4-.7s-.6-.3-1.1-.3c-.4 0-.7.1-.9.2s-.3.3-.3.5.1.3.3.5.6.3 1.3.5c.8.3 1.5.6 1.9.8 1.1.7 1.7 1.5 1.7 2.6 0 .6-.2 1.1-.5 1.6-.3.4-.8.8-1.4 1s-1.2.3-2 .3-1.5-.1-2.1-.3-1.1-.6-1.5-1c0-.8-.1-1.4-.1-2zm-58.1 14.8v-9.6h4.8c1 0 1.8.2 2.3.7s.8 1.1.8 1.9c0 .9-.4 1.6-1.2 2 .5.2.9.5 1.2.8.3.4.4.8.4 1.4 0 .8-.3 1.5-.8 2-.6.5-1.3.8-2.3.8zm2.5-2.2h2.5c.6 0 .9-.3.9-.9 0-.5-.3-.8-.9-.8h-2.5zm0-3.6h2c.6 0 .9-.3.9-.8 0-.2-.1-.4-.2-.6-.1-.1-.3-.2-.6-.2h-2.2c.1 0 .1 1.6.1 1.6zm9.4 5.8v-9.6h7.4v2.4h-4.9v1.4h4v2.2h-4v1.2h4.9v2.4zm10.4-7.2v-2.4h8.4v2.4h-3v7.2h-2.5v-7.2zm11.7 0v-2.4h8.4v2.4h-3v7.2h-2.4v-7.2zm11.8 7.2v-9.6h2.5v9.6zm6.4 0v-9.6h2.1l4.3 5.4v-5.4h2.4v9.6h-2l-4.3-5.4v5.4zm12.8-2.9c-.3-.6-.4-1.3-.4-1.9 0-.7.1-1.3.4-1.9s.6-1.1 1.1-1.6 1-.8 1.6-1.1 1.3-.4 2-.4c.8 0 1.6.2 2.3.5s1.3.9 1.8 1.5l-2 1.4c-.2-.3-.6-.6-.9-.7-.4-.2-.8-.3-1.1-.3-.7 0-1.3.3-1.8.8s-.8 1.2-.8 1.9.3 1.3.8 1.9c.5.5 1.1.8 1.8.8.4 0 .8-.1 1.2-.3s.7-.5.9-.8v-.3h-2.3v-2h4.6v5.6h-1.9v-.9c-.2.3-.6.6-1 .8s-.9.3-1.4.3c-.7 0-1.3-.1-2-.4-.6-.3-1.2-.6-1.6-1.1-.7-.6-1.1-1.2-1.3-1.8z" fill="#fff"/><path d="m0 80h68v-80h-68z" fill="#bf0816"/><g fill="#fff"><path d="m39.7 45.7c-2.4.5-4.8 1.1-7.2 1.7-1.6.4-3.3.8-4.9 1.1-.4.1-.8.1-1.2.2-4.1.3-6.1-.7-7.4-1.9-4.4-4.2-3.4-11.6 2.4-13.8 3.9-1.5 2.8-1 6.9-2 2.3-.6 4.6-1.1 6.9-1.7s3.6-2.7 3.1-4.9c-.4-1.9-2.9-3.6-5.1-3.1-2.4.5-4.8 1.1-7.2 1.7l.1.4c-.2-.8 0 0-.1-.4 0 0-1.3.2-6.1 1.5-6.5 1.8-11.6 7.9-12.3 14.5-.6 5.5 2.8 12.4 7.4 15.5 1 .7 5.2 3.9 12.2 2.7 2.5-.5 5-1.1 7.4-1.7 2.3-.6 4.6-1.1 6.9-1.7s3.6-2.7 3.1-4.9c-.3-2.1-2.7-3.7-4.9-3.2"/><path d="m52 34.6c-.4-.2-1.6-.7-3.3-1.1 1-1.9 1.6-4.1 1.9-6.4.6-5.5-2.8-12.4-7.4-15.5-1-.7-5.6-3.6-11-2.7-2.5.5-5 1-7.4 1.5-2.3.6-4.6 1.1-6.9 1.7s-3.6 2.7-3.1 4.9c.4 1.9 2.9 3.6 5.1 3.1 2.4-.5 4.8-1.1 7.2-1.7 1.6-.4 3.3-.8 4.9-1.1.4-.1.8-.1 1.2-.2 4.1-.3 6.1.7 7.4 1.9 4.4 4.2 3.4 11.6-2.4 13.8-1.4.5-2.1.8-2.7 1-1.3.3-2.6.6-4 .9l-.3.3c-2.3.6-4.6 1.1-6.9 1.7s-3.6 2.7-3.1 4.9c.1.3.2.6.3.8.8 1.5 2.9 2.6 4.7 2.2 2.4-.5 4.7-1.1 7.1-1.6h.1c1.6-.4 3.2-.7 4.8-1.2 6.4-1.8 10 .7 11.3 1.9 4.4 4.3 2.5 12.1-5 14-4.2 1.3-2.9.6-7 1.7-2.3.6-4.6 1.1-7 1.7-2.3.6-3.6 2.7-3.1 4.9.4 1.9 2.9 3.6 5.1 3.1 2.4-.5 4.8-1.1 7.2-1.7 0 0-.1-.4 0 0 0 0 1.3-.2 6.1-1.5 9.6-2.1 14.5-8.6 15.2-15.2.8-5.3-.7-11.6-9-16.1"/></g></g></svg>