<svg xmlns="http://www.w3.org/2000/svg" version="1.1" id="LeoVegas_SPORT" x="0" y="0" viewBox="0 0 390.1 97.8" xml:space="preserve"><style>.st2{fill:#fff}</style><g id="LeoVegas.com"><linearGradient id="SVGID_1_" gradientUnits="userSpaceOnUse" x1="218.898" y1="12.086" x2="263.497" y2="89.333" gradientTransform="matrix(1 0 0 -1 0 100)"><stop offset="0" stop-color="#481113"/><stop offset="1" stop-color="#9a382e"/></linearGradient><path d="M383.9 53.5c1.8-1.5 2.8-3.8 2.8-7.3 0-2.4-.9-5.7-2.7-7.5-3.4-3.4-10.6-5.6-16.5-5.6-8.5 0-14.1 3-17.2 7.1-.1-.2-.3-.4-.4-.6-3.4-4.1-9-6.4-17.1-6.4-2.8 0-5.3.3-7.5.8v-.1h-22.1v1.3c-1.2-.8-2.1-2.1-7.8-2.1-5.8 0-11.1 2.5-14.8 6.6-3.7-4.1-9.2-6.6-16.6-6.6h-.7V18.3h-61.7v15h-.7c-7.7 0-13.8 3-18 7.7-3.6-4.8-9.5-7.8-17.6-7.8-12 0-20.3 8-22.4 18.4h-13.3v-13h6.2V18.5h-34.4v20.2h5.4v20.2h-5.4v20.2h47.4V73c4.4 4.3 10.8 6.8 18.4 6.8 6.6 0 12.3-1.3 17.1-4.1l1.3-.9c3.9 3 9 4.9 15.2 4.9 9.5 0 16.7-4.7 20.6-11.3l2.9 5.7c1.2 3.3 4.3 5.7 8.7 5.7 4.2 0 7.3-2.4 8.6-5.5l2.6-5.5c4.1 6.9 11.9 11.1 21.8 11.1 4.1 0 7.9-.5 11.4-1.6v3.5c0 2.2.7 4.2 2.5 6 3.2 3.2 10 5.8 18 5.8 7.4 0 13.4-2.4 17.1-7 2.1-2.6 3.5-5.9 4-9.8 2.9 2 6.6 3 10.5 3 2.2 0 4.3-.3 6.4-.9v.1h19.2v-.9c3.6 1.3 7.8 2.1 11.9 2.1 11.1 0 20.8-5.5 20.8-15.8-.2-5-1.1-8.4-3.9-10.9z" fill="url(#SVGID_1_)"/><path d="M381.3 54c8.8-11.2-4.9-20.1-18.4-16.9-8.5 2-14.4 12.1-7.7 20.5-1.5 1.6-3.3 2.4-3.8 5-1.9-5 .7-12.6-1-17.2-4.2-11.1-20.9-10.6-29.5-4v-3.9c-3.2-.4-16.4-.2-16.4-.2s-.6.5-.9.5c-1.3-.3-2.5-.7-3.8-1-4.6-.8-8.8 0-12.1 1.8-5.8 3.1-6.2 4.9-7.2 7.2-3.8-9.8-17.2-10.7-27.4-6.5.8-1.8 2.1-4.2 2.1-4.2h4.6V21.7h-24.6v13.4h3.2l-5.1 13.1s-3.5-8.6-5.2-13h3V21.7l-24.8-.1-.3 13.6h5s1.1 2.8 1.7 4.2v.2c-3.2-2.6-8.2-2.9-11.5-2.9-8.3 0-15.3 4.2-18.4 10.9-.1.1-.1.3-.2.4-1.5-8.3-13.3-13.9-24.3-10.5-7 2.2-12.8 8.4-12.7 17.8-2.5-.4-9.4-.3-12.9-.3-.2 1.6-.3 3.4-.2 6.7h-6.7V35.2c1.6 0 6.4-.1 6.4-.1l.1-13.4-26.7.1v13.3s2.7.2 5.8.1v26.6c-1.3 0-3.7.1-5.1.1-.4 1.5-.6 8.9-.5 13.4 2.6.3 32.2.5 40.1.4.2-3 .5-8.2.8-11.8h.2c1.9 9.1 13.5 13.8 25.5 11.5 3.9-.7 10.1-4.3 10.1-4.3s-2-5.8-2.4-8.9h1.5C184.2 71.8 197 80 210 74.5c6.6-2.8 8.3-7.8 11.1-14.6v-.4h.2c2 4.9 4.7 10.8 6.7 15.7.6 1.6 7.8 2.3 9.3-.1 2.4-4.5 5.5-11.8 7.2-15.6h.2c1.4 15 15.7 18.1 29.4 14.9 1.6-.4 7-3.1 7-3.1s-1.3-4.7-1.9-8.3c1.9 3.2 3.6 5.4 5.6 8.2-1.2 1.3-3.1 2.4-3.8 4.2-4.2 12.2 15 17.2 25.1 13.4 9.2-3.5 10.3-13.2 10.2-24.9 0 4.6 2.4 9.2 6.8 11 2.8 1.2 13 1.8 14.9-.6 3.5 1.7 11.2.9 16.1.8.8-.6 1.4-1 1.7-2.1 15.1 7.7 39.2-1.7 25.5-19zM163 50.4c0 .6-.6-.8 1.7-.8 1.4 0 2.1.4 2.7.8-1.5.1-3 0-4.4 0zm2 11.8h5.9c-1.5.8-4.4.8-5.9 0zm29.7.4V62c1.5-2 3.9-2.9 5.4-4.8.9 2 1.8 3.9 2.7 5.9l1.3 1.3c-2.5-.2-5-1.9-9.4-1.8zm67-12.4c.6-.2 0-.6 1.7-.6s2.4 0 2.7.6c-1.5.1-2.9.1-4.4.2v-.2zm2.1 12c1.9.1 3.7 0 5.6 0-1.9.8-4 .9-5.6 0zm32.4 14.6c-.2-.8-.4-1.5-.6-2.3 1.8 0 4.2.2 5.4-.4h.4c-.8 2-2.2 2.8-5.2 2.7zm5.8-17.1c-5.7 6.2-13.9-5-4.4-9.6 1.5.4 2.9.8 4.4 1.3v8.3zm14.4 4c-.1-4.3-.3-8.9-.4-13.5h2.5c.5 2 1.5 2.6 2.5 4-3 2.3-4.5 5.9-4.6 9.5zm16.8-14.3c1.7.1 2.7.6 3.3 1.7v.2H333c.1-.6.1-1.3.2-1.9zm-1.7 14c-.1-.1-.3-.1-.4-.2.4-.5.4-.8.8-1 .3-.2 1-.2 1.5-.4.4 0 1.1-.2 1.8-.2s1.4.4 1.7.4c-1 1.1-3.4 1.8-5.4 1.4zm34.8 0c-.1-.2-.1-.4-.2-.6.8.2 1.7.4 2.5.6h-2.3z" id="Dark_Red" opacity=".15"/><path class="st2" d="M165.2 39.8c-9.7 0-15.9 7.5-15.9 16.4 0 9.8 7.1 16.2 17.4 16.2 4.6 0 8.6-.9 11.9-2.9l.1-.6-1.5-5.3c-3.1 1.4-6.2 2.2-9.3 2.2-5.2 0-9.3-2.2-10.3-7h22.7c.2-1.1.4-2.7.4-3.9-.2-8.3-5.5-15.1-15.5-15.1zm-7.9 13.5c.9-5.2 4.3-7.2 7.8-7.2 4.6 0 7.4 2.9 7.5 7.2h-15.3zm43.9-13.4c-10.3 0-16.7 7.7-16.7 16.3 0 8.8 6.3 16.3 16.7 16.3 10.3 0 16.7-7.7 16.7-16.3 0-8.8-6.3-16.3-16.7-16.3zm6.1 5.8c.2.5.3.9.2 1.6-.2 0-.4 0-.5-.1l-.1-.1c.1-.4.3-1.2.4-1.4zm-6.1-1.8l-.3 1.5c-.2 0-.4-.1-.5-.1.1-.5.3-1.2.8-1.4zm-2.4 3.3c.3-.6.7-1.1 1.1-1.4.3-.2.5-.2.8-.2.1.1.4.3.6.5.2.3.3.7.5 1.1.6 1.3.9 3-.1 3.9-.3.4-.8.5-1.3.6-.8-.5-2-1.1-2.3-2-.3-.6.1-1.6.7-2.5zm-6.3-1.8c-.1.7 0 1.1.2 1.7v.1c-.2 0-.4.1-.6.2-.3-.5.1-1.8.4-2zm-.5 2.3c.4-.2.6-.3 1.3-.2.6.3 1.1.6 1.7.9.4.4.5 1 .7 1.6.5 1.3 1 2.1.1 2.8-.2.1-.4.2-.7.3-.5.2-.8.8-1.5.8-2.2.2-2.3-4.5-1.6-6.2zm12.4 20.1c-1.7.4-4.7-1.6-6.1-2-2-.7-4.2 1.1-5.7 0-.7-.5-1.9-4.3-1.2-5.5.4-.4.8-.7 1.2-1.1.8-1 1.6-2.3 2.6-3 .7-.3 1.4-.7 2.1-1 .5-.3.7-.7 1-1 .6-.6 1.2-1 2.9-.8.4.2.8.4 1.3.5.8.6 3 5.8 3.6 7 .3.8 1.5 1.2 1.7 2.1.4 2.5-1.8 4.4-3.4 4.8zm3.5-15c-.3.3-.7.5-1.2.6-.3 0-.7.1-1.1 0-.2-.1-.4-.3-.7-.4-.2-.1-.3-.2-.5-.3-.4-1.8.7-4.5 2.1-5.2.2-.1.5-.1.8-.1.9.9 1.3 2.2 1.3 3.3 0 .4 0 .9-.1 1.3 0 .3-.3.6-.6.8zm5.5 4.7c-.1.6-.2 1.3-.3 1.9-.4.7-1.1 1.1-2 1.3-.3 0-.6.2-.8.1-.3 0-.6-.2-.9-.3-.3-.1-.5-.3-.7-.5-1.1-1 .1-3.9 1.1-4.4 1-.2 2-.4 3-.5.3.2.5.3.8.5.2.6 0 1.2-.2 1.9zm.3-2.1l-.6-.3c.2-.5.5-1 .7-1.5.1.5 0 1.2-.1 1.8zm-77.8 9.3h-13V31.9h6.2v-7.3h-19.7v7.3h5.4v32.7h-5.4v7.3h34.3V58h-7.8v6.7zm127.8-24.9c-9.7 0-15.9 7.5-15.9 16.4 0 9.8 7.1 16.2 17.4 16.2 4.6 0 8.6-.9 11.9-2.9l.1-.7-1.5-5.3c-3.1 1.4-6.3 2.2-9.4 2.2-5.2 0-9.3-2.2-10.3-7h22.7c.2-1.1.4-2.7.4-3.9-.1-8.2-5.4-15-15.4-15zm-7.8 13.5c.9-5.2 4.3-7.2 7.8-7.2 4.6 0 7.4 2.9 7.5 7.2h-15.3zm91.8-1.3c0-3.2-.8-5.9-2.4-7.9-2.2-2.7-5.9-4.2-11.3-4.2-8.5 0-12.5 4.1-12.5 8 0 2.6 1.8 4.2 4.2 4.2 2.4 0 4.2-1.7 4.2-4.1 0-.4-.1-1.1-.3-1.6.7-.3 1.7-.5 3.1-.5 2.8 0 4.9.6 6.2 2.3.8 1 1.2 2.4 1.2 4.3V55c-1.7-.4-4.7-.9-8-.9-7.5 0-12.6 3.6-12.6 9.5s4.8 8.8 10.2 8.8c4.2 0 8-1.9 10.6-4v3.4h12.1v-6.5h-4.7V52zm-7.6 12c-2.4 1.7-5.1 2.8-7.9 2.8s-4.7-1.4-4.7-3.9c0-2.9 2.3-4.6 6.1-4.6 2.4 0 4.7.3 6.5.7v5zm-83.5-32.1v-7.3h-18.7v7.3h5.2L233 57.8l-10.2-25.9h5v-7.3h-18.7v7.3h4.3l17.2 40.5h4.6l17.2-40.5h4.2zm48.6 11.3c-2.1-1.8-5-3.4-9-3.4-8.2 0-14.7 7-14.7 15.9 0 9.3 6.4 15.4 14.4 15.4 4.2 0 6.7-1.7 9-4v4.5c0 2.4-.5 4.2-1.4 5.5-1.4 1.9-3.6 2.7-6.4 2.7-1.9 0-3.4-.4-4.7-.8.1-.3.1-.9.1-1.2 0-2.4-1.9-4.1-4.4-4.1-2.6 0-4.2 2.2-4.2 4.4 0 1.5.5 2.9 1.7 4.1 2.2 2.2 6.9 4 12.4 4 5.1 0 9.2-1.7 11.8-4.8 1.9-2.4 2.9-5.6 2.9-9.5V47h4.7v-6.6h-12.2v2.8zm-.3 18.3c-2 1.9-4.4 3.1-7 3.1-4.8 0-8.3-3.2-8.3-8.9 0-6 3.5-9.1 8.3-9.1 2.8 0 5.2 1 7 2.4v12.5zm64.5-8.6c-4.8-1.3-6.6-2.2-6.6-4 0-1.7 1.7-3.2 5.2-3.2 1.6 0 3.2.3 4.5.8-.1.4-.1.9-.1 1.4 0 2.4 1.7 3.9 4.2 3.9 2.3 0 3.9-1.7 3.9-4.2 0-1.5-.6-2.9-1.7-4-2.2-2.2-6.8-3.6-10.6-3.6-8.8 0-12.9 5.1-12.9 10 0 5.4 3.7 7.5 12.3 9.8 4.8 1.3 6.2 2.2 6.2 3.8 0 2.3-2.6 3.4-5.7 3.4-2.2 0-4.2-.4-5.7-1 .1-.4.1-.9.1-1.3 0-2.7-2.1-4.2-4.2-4.2-2.4 0-4.2 1.9-4.2 4.2 0 1.7.5 2.9 1.8 4.2 2.1 2.1 7.3 3.8 12.1 3.8 7.1 0 13.3-3.5 13.3-10.1 0-5.9-4.3-7.7-11.9-9.7z" id="White"/><path d="M255.7 30.6v-5.3h-16.9v5.6h4.8c.6 1.4-1 6-2.8 10.7 2.3-1 4.7-1.7 7.1-2.2 1.2-2.8 2.4-5.7 3.5-8.5 1-.4 2.7-.4 4.3-.3zm-47.1 17.1c.4.9 1.2 2.9.5 4.5-1 2.1-3.1 2.1-3.4 2-.3-.1-1.5-1.3-1.9-2.2l-1.1 1c.7.5 1.7 1.4 2 2.4.5 1.6 1.7 4.2 3 5.1 1.3.8 1.5 4.9 0 6.1s-3 2.7-4.8 2c-1.7-.6-3.6-1.5-5.1-1.7s-4.2.6-5.3-.4c-.8-.7-1.8-1.8-2.2-2.7l-1.4 1.3c2.9 3.8 7.8 6.2 13.9 5.9 5-.3 8.3-2.8 10.6-5.8 4.6-5.9 4-15.1-1.6-20.4l-3.2 2.9zM143 70.8v-7.1c-2.5 2.6-4.6 5.1-6.1 7.1h6.1zm48.2-24.2s.3-2 1-2c1.4 0 1 1.6 1.4 1.8.1.1.3.1.4.2l5.7-5.6c-4.8.6-10.6 3.3-12.7 9-.6 1.5-.9 3.1-1 4.6l4.9-4.9.3-3.1zm64.8 15c-1.4 1.6-2.6 3.1-3.6 4.5 1.1 1.3 2.3 2.3 3.7 3 1.5-1.2 3.2-2.1 5.2-3.2-2.4-.7-4.3-2.1-5.3-4.3zm-84-19.4c-.9.9-2.2 1.9-4.1 3.2 4.1.9 5.7 3.9 5.6 8.7-3.6.5-12.4.1-17 0-.1-.6-.1-1.2-.1-1.7-2.1 1.4-4.2 2.9-6 4.5.3 5.2 3.2 9.7 7.7 12.3.4-1.5 1-3 1.8-4.6-1.8-1.3-3-3.3-3.3-6.1v-1.2h10.3c.3-.1.5-.3.8-.4 6-2.9 9.7-1.8 11.8-.4 0-7.3-2.6-12-7.5-14.3zm54.9-11.3v-5.6h-9.6c1.3 3.1.3 7.8-.9 11.5 2.7 6.3 5.4 12.7 8.1 19 1.1-1.5 2.5-3.2 4.3-5.1-3.2-7.9-7.2-18.1-7.3-19.8 1.5-.1 3.7-.1 5.4 0zm95.8 18.6c4.5-3.9 9.2-7.2 14.1-8.7-7.1-1-15.8 1.5-14.1 8.7zm24.2 10.6v-.3c-1.9 1.4-3.9 2.9-6.1 4.4v.2c-.5.3-1.1.7-1.9 1.1-3 2-6.1 4-9.2 6 1.6 0 3.2-.3 4.8-.9 1.9-1 3.9-2.1 5.8-3.1.1 0 .5-.3.5-.3 0 .9.2 2.3.1 3.7h10.4v-4.6h-4.6c.2-1.7.2-4.2.2-6.2zm-76.3-11.7c.9 1.4 1.4 3.2 1.4 5.5-2 .1-5.3.2-8.7.2-1.3 1.1-2.4 2.3-3.6 3.4 3.5 0 7.9-.1 11.8-.1 1.6-1.4 3.8-3 6.3-4.6-.3-2.8-1.2-5.2-2.6-7-1.5.8-3.1 1.7-4.6 2.6zm109.5 11.4c-2.4-5.7-15.6-5.9-18.1-10.4.1-.6.1-1.3.2-1.9 1.2-3.5 7.3-3.4 11.1-2.3.4.9.1 1.7.2 2.5s.6 1.6 1 2.2c1.3.4 2.8.7 3.8-.2 1-.5 1.1-1.1 1.3-2.5.7-4.5-5.4-6.5-10.9-6.9-2.2 2.4-6 6.1-12.1 11.4.3 1.2 1 2.2 2.1 3 3.9 2.9 13.6 2.7 15.9 7.1 0 .4.3.9.3 1.3 0 .5-.3 1-.3 1.4-.9 2-5.3 3-8.9 2.6-1.4-.1-2.7-.3-3.6-1-1.5-1.2.6-3.5-2.9-5.4l-2.7.6c-6.8 9.8 17.9 13.2 23 5 1.5-2.5 1.3-4.8.6-6.5zm-81.4-19.1c-2.8-.7-5.4 0-7.5.9-3.5 1.5-6 4.5-7.5 7.9 5.7-3.1 12-6 16.9-8.2-.6-.2-1.2-.4-1.9-.6zm-11.5 34c-1.3.5-1.7 1.3-2.3 2.5 0 .7.1 1.4.3 2 1.7-.9 3.7-2 5.8-3.1V76c-.6-1.1-2.2-1.8-3.8-1.3zm18.7-17.4c0 1.6 0 3.2-.1 4.5-3.2 2.5-6.2 3.5-8.7 3.5-2.1 1.7-4.1 3-5.9 4 1.6.6 3.3.9 5.1.9 3-.1 5.9-1.1 7.9-3.8.2 0 .8-.7 1-.7s.3.4.5.4v.1h.1c2-1.7 4.1-3.8 6.3-6.1 0-2.9-.1-5.9-.1-8.7-2 1.9-4 3.9-6.1 5.9z" fill="#3b200f" id="Grey" opacity=".1"/></g><g id="Head"><path class="st2" d="M48.9 9C71 9 89 27 89 49.1c0 22.2-18 40.1-40.1 40.1S8.8 71.3 8.8 49.1C8.8 27 26.8 9 48.9 9z"/><linearGradient id="SVGID_2_" gradientUnits="userSpaceOnUse" x1="-11.222" y1="4.852" x2="-11.222" y2="97.652" gradientTransform="matrix(1 0 0 -1 60.122 100)"><stop offset="0"/><stop offset=".103"/><stop offset=".271" stop-color="#09010b"/><stop offset=".483" stop-color="#2f1b1d"/><stop offset=".729" stop-color="#5d3029"/><stop offset=".94" stop-color="#924330"/></linearGradient><path d="M36 22.8c.7.7 1.7 3.1 1.7 3.1s1.3-1.2 5.1-1.2c3.9 0 6.1 2.9 6.1 2.9s1.2-3 5.6-3c2.3 0 4.2 1.1 5.3 1.2.4.1 1.3-1.1 2.3-2.7.6-1 2.1-.7 3.5 0l2.5-4.9c-1.3-.8-2.6-1.5-4-2.2L59 23.2l.9-8.8c-1.4-.5-2.9-.8-4.5-1.1L51.9 23l-1-10.2c-.7 0-1.4-.1-2-.1-.9 0-1.7 0-2.6.1l-1 10.6-3.5-10c-1.5.3-3 .7-4.5 1.2l.9 8.3-5.1-6.7c-1.4.7-2.7 1.4-4 2.3l2.7 5c1.8-.9 3.7-1.3 4.2-.7zM54.7 37c-.3.9-1 4.5-.3 4.7.5.2.9-.6.9-.6s4.4-1 4.8-1.3c.4-.3 1.6-1.9 1.6-1.9s.8.3 1.1 0 .3-.5.1-.7c-.9-.7-2.4-1.7-3.9-1.7-1.6.1-4 .6-4.3 1.5zM44 34.4c-1.3-.5-3.1-3.4-3.7-3.8-.6-.4-1.1-.4-1.6-.5s-2 0-2.7 0c-.3 0-1.1.4-1.6 1.1-.6.7-.9 1.7-.9 1.7s.3 1.1 1.2.9c1.3-.4 3.5-2 5.4 0 1.3 1.3 1.9 2.7 3.1 2.9 2.1.2 3.7-1.2.8-2.3zm23.9-9.7c1.4 1.3 2.5 2.3 2.5 4.1v.3l5-5C74.2 23 73.1 22 72 21l-4.2 3.6.1.1zm17.4 24.4c0-1.5-.1-3.1-.3-4.5l-18.4 1.2L84.2 40c-.4-1.5-.9-3-1.4-4.4l-13.5 3.1 11.5-7.2c-.7-1.3-1.6-2.6-2.5-3.8l-11.3 6c.2.7.4 1.7.6 2.3.3 1 .1 3.9-.1 5.4s-2.5 2.8-4 3.7c-1.2.7-1.9 1.5-2.2 2.7-.2.6-.4 1.3-.5 1.8-.1.4 0 .7 0 1 0-.1-.2-.4-.3-.5-.5-.8-.9-.8-1.1-.6-.3.2.4.8.8 1.7.4.8.7 1.8.8 2.3.3 1 .7 3.7.2 5.5-.4 1.8-1 2.9-2.1 3.8-.8.7-3.7 1.2-4.6.7-2.2-1.1-3.1-.4-3.8-1.2s-1.3-2.4-1.3-3.1c.1-.7 1.2-2.4 3-3.9 1.7-1.5 3-1.6 3.5-2.1.3-.2.4-.5.5-.9.1-.5.3-.8 0-.9-.2-.1-.3 0-.6.2-.4.4-.8.8-.9.7-.1-.1 0-.1-.1-.3s-.2-.6-.6-.9c-.8-.7-3.3 1.1-5.3 1.1S45 51 44 51.5c-.5.2-.7.5-.8.8s.1.3 0 .4c-.2.1-.3-.3-.6-.6s-.4-.4-.7-.2 0 .3.3.9c.2.5.6.9.8 1.2.4.7 1.9 1.7 2.8 2.2.9.5 2.4 2.4 2.6 3 .3.6-.7 2.4-.8 2.6l-.9.9c-.9.9-2.8 2.3-4 2.6s-2.6.8-3.4-.1c-.7-.9-2.5-4.1-2.8-6.8-.2-1.6.3-2.7.7-3.9.3-.8.4-1.8.6-2.4 1-2.8 2.2-3.7 2-3.9-.3-.3-1.8.4-2.5 1.7l-.3-.6c-.1-.2-.3-.4-.5-.7-.1-.2-.3-.4-.5-.8-1-1.3-2.8-2.4-4.2-3.8-1.4-1.4-.9-3.4-1-6.6-.1-2.2.3-3.4.5-4L19.4 28c-.9 1.2-1.7 2.5-2.4 3.9L28.4 39 15 35.9c-.6 1.4-1 2.9-1.4 4.4l16.3 5.3-17.1-.9c-.2 1.5-.3 2.9-.3 4.4v.1l18.1 1.1-17.8 3.4c.2 1.5.5 3 .9 4.5l17.8-3.5-16.4 7.8c.6 1.4 1.2 2.8 2 4.1l16.4-7.8-14 11.6c.9 1.2 1.9 2.4 2.9 3.5l13.9-11.7-10.5 15c1.2 1 2.4 1.9 3.7 2.7l8.6-11.2L33.4 82c1.4.7 2.8 1.2 4.3 1.7l4.7-9.4-.3 10.5c1.5.3 3 .5 4.6.6l2.2-6.4 2.2 6.4c1.6-.1 3.1-.3 4.6-.6L55 73.7l5.1 10c1.5-.5 2.9-1 4.3-1.7l-5.5-14.8 9.6 12.5c1.3-.8 2.5-1.7 3.7-2.7l-9.8-13.6 13 10.6c1-1.1 2-2.3 2.9-3.5L64.1 58.8l16.7 7.8c.7-1.3 1.4-2.7 1.9-4.1L66 54.7l18.1 3.4c.4-1.5.6-3 .8-4.5l-18.1-3.4 18.5-1.1zM56.1 70.3c-.7 1.9-3.7 3.4-4.7 4.4s-2.5 3.8-2.5 3.8-2.1-2.7-2.8-3.7-1.7-.9-2.8-1.9-2.6-3.3-3.1-4.2c-.4-1-.5-1.1.1-1.6s1.9-.6 3.4-1.1c1.6-.5 1.4-2.1 5.1-2.1 1.5 0 3.1.8 3.8 1.1 1.5.7 3.8-.1 4.8.6s-.6 2.8-1.3 4.7zm-17.2-34c-1.4 0-2.8 1-3.7 1.6-.2.2-.2.4.1.7.3.2 1 0 1 0s.3.3.9.7c.3 0 1.3-.1 2.8.8.6.4.7 1 1.2 1.3.4.2.9.1 1.1.2.3.2.4.8.9.6s.2-.6.2-1.1c0-1.1-.3-2.7-.5-3.3-.3-1-2.6-1.4-4-1.5zm10-33.6C23.3 2.7 2.5 23.5 2.5 49.1s20.8 46.4 46.4 46.4 46.4-20.8 46.4-46.4S74.5 2.7 48.9 2.7zm0 86.5c-22.1 0-40.1-17.9-40.1-40.1C8.8 27 26.8 9 48.9 9S89 27 89 49.1c0 22.2-18 40.1-40.1 40.1zm-19.2-64l-4.2-3.9c-1.2 1-2.3 2-3.3 3.1l4.9 4.4c.3-1.1 1.4-2.5 2.6-3.6zm33.7 11.3c.2 0 .3-.1.3-.5.1-1.2-.4-2.7-.6-3.1-.3-.5-1-1.7-1.7-2-.7-.2-1.9-.2-3.1-.2-2.1.1-2.4.2-4.1 1.8-.7.7-1.4.7-1.7 1.3s0 1 .1 1.3.6 0 .6 0 2.4-1.8 5.2-2.4c3.9-.8 4.8 3.5 4.8 3.5s.1.3.2.3z" fill="url(#SVGID_2_)"/><path d="M87.1 39.4c-.5-1.6-1.8-5.6-3.1-8.4-.5-.8-1.9.2-1.7.5l.2.2-7.3 4.4 8.5-1.8s.5 1.2.9 2.9c.4 1.6.8 3.6.8 3.6l-11.8 3.4 8.1-.4c1.2-.5 2.6-.5 3.7-.8.8-.3 2.1-.4 2.1-1.3 0-.7-.2-1.5-.4-2.3zm-20.2-2.2c-.3-2.2-1.4.7-2.2 1l-2.4 1.2c-.7.4-1.7 1-2.4 1.4-1 .6-2.3 1.2-3.1 1.8-3.9 2.9-6.2 6-7.7 8.8h.1c1.2-.3 3.4-1.5 4.4-1.5s1.5.9 2.1.8c.6-.1 1.6 0 1.1 1.4-.4 1.5-1.5 1.6-2.9 2.7s-3 2.3-3.4 3.4c-.3 1.2-.3 2.8.9 3.4 1.2.6 3.5 1.9 5.8 1s3.8-4.6 3.4-7c-.4-2.4-1.3-5.1-1.9-5.8-.7-.7-.3-1.7.1-1.8.4 0 1.2.8 1.5.1s.8-3 2.3-3.9c1.5-.9 4.2-2.4 4.3-4.7.2-.8.1-1.6 0-2.3zm-26 27.9c1.5-.1 5.5-2.3 6-3.1s1.3-2.6.3-3.7c-.3-.3-.6-.6-.9-.8-.3-.1-.2.5-.4.7-.4.7-.8 1.4-1.3 1.9-1 1.1-5.5 3.1-5.3 3.9.3.8.8 1.2 1.6 1.1zm-5.1 18.6c-1.6-.6-3.2-1.5-3.2-1.5l3.4-9.5-6.5 8.2s-1.4-1-2.7-2c-1.3-1.1-2.5-2.2-2.5-2.2l6.2-7.5-2.1 1.2-5.7 4.5-.5-.5c-.7.5-2.1.2-1.8 1.4 1.5 1.5 4.5 4.5 8 6.4 3.8 2.2 7.1 3.5 9.1 4.2v-.1c1.1-.1 1.7-.9 2.5-1.8.6-.7 1-2.4 1.5-3.3l.3-4.3-3.6 7.6c.1.1-1.1-.2-2.4-.8zM53.4 66c-1.2-.3-2.3-1.1-4.4-1.1-2.1 0-2.6 1.3-4.2 2-1.6.6-4-.2-3.8 1.1.3 1.4 2.6 3.7 3.7 4.4 1 .6 2.4 1.5 2.9 2.9 1.7-1.2 3.3-2 5.1-2.8.6-.3 1.3-.9 2-1.7.2-.2.3-.5.4-.7.5-1 2.3-3.4 1.8-4-.4-.6-2.3.2-3.5-.1z" fill="#e7e3df"/><path d="M87.1 39.4c-.5-1.6-1.8-5.6-3.1-8.4-.5-.8-1.9.2-1.7.5h0l.2.2-7.3 4.4 8.5-1.8s.5 1.2.9 2.9c.4 1.6.8 3.6.8 3.6l-11.8 3.4 8.1-.4c1.2-.5 2.6-.5 3.7-.8.8-.3 2.1-.4 2.1-1.3h0c0-.7-.2-1.5-.4-2.3zm-20.2-2.2c-.3-2.2-1.4.7-2.2 1l-2.4 1.2c-.7.4-1.7 1-2.4 1.4-1 .6-2.3 1.2-3.1 1.8-3.9 2.9-6.2 6-7.7 8.8h.1c1.2-.3 3.4-1.5 4.4-1.5s1.5.9 2.1.8c.6-.1 1.6 0 1.1 1.4-.4 1.5-1.5 1.6-2.9 2.7s-3 2.3-3.4 3.4c-.3 1.2-.3 2.8.9 3.4 1.2.6 3.5 1.9 5.8 1s3.8-4.6 3.4-7c-.4-2.4-1.3-5.1-1.9-5.8-.7-.7-.3-1.7.1-1.8.4 0 1.2.8 1.5.1s.8-3 2.3-3.9c1.5-.9 4.2-2.4 4.3-4.7.2-.8.1-1.6 0-2.3h0zm-26 27.9c1.5-.1 5.5-2.3 6-3.1s1.3-2.6.3-3.7c-.3-.3-.6-.6-.9-.8h0c-.3-.1-.2.5-.4.7-.4.7-.8 1.4-1.3 1.9-1 1.1-5.5 3.1-5.3 3.9h0c.3.8.8 1.2 1.6 1.1zm-5.1 18.6c-1.6-.6-3.2-1.5-3.2-1.5l3.4-9.5-6.5 8.2s-1.4-1-2.7-2c-1.3-1.1-2.5-2.2-2.5-2.2l6.2-7.5-2.1 1.2-5.7 4.5-.5-.5c-.7.5-2.1.2-1.8 1.4 1.5 1.5 4.5 4.5 8 6.4 3.8 2.2 7.1 3.5 9.1 4.2v-.1c1.1-.1 1.7-.9 2.5-1.8.6-.7 1-2.4 1.5-3.3l.3-4.3-3.6 7.6c.1.1-1.1-.2-2.4-.8zM53.4 66c-1.2-.3-2.3-1.1-4.4-1.1-2.1 0-2.6 1.3-4.2 2-1.6.6-4-.2-3.8 1.1.3 1.4 2.6 3.7 3.7 4.4 1 .6 2.4 1.5 2.9 2.9 1.7-1.2 3.3-2 5.1-2.8.6-.3 1.3-.9 2-1.7.2-.2.3-.5.4-.7.5-1 2.3-3.4 1.8-4-.4-.6-2.3.2-3.5-.1z" fill="none" stroke="#fff" stroke-miterlimit="10"/></g></svg>