<svg enable-background="new 0 0 1012.2 275.1" viewBox="0 0 1012.2 275.1" xmlns="http://www.w3.org/2000/svg"><path d="m36 261.6-9.5-13.8h-.6l-9.9.1.1 13.9h-11.3l-.3-50 21.2-.1c4.3 0 8.1.7 11.3 2.2s5.7 3.5 7.4 6.2 2.6 5.9 2.6 9.6-.8 6.9-2.6 9.6c-1.7 2.7-4.2 4.8-7.4 6.2l11.1 16zm-3.1-38.3c-1.8-1.5-4.4-2.2-7.8-2.2h-9.2l.1 17.4h9.2c3.4 0 6-.8 7.8-2.3s2.6-3.7 2.6-6.4c0-2.8-.9-5-2.7-6.5z"/><path d="m82.1 226.7c3.1 2.8 4.7 7.1 4.8 12.8l.1 21.9-10.2.1v-4.8c-2 3.6-5.8 5.4-11.4 5.4-2.9 0-5.4-.5-7.5-1.5s-3.8-2.4-4.9-4.1c-1.1-1.8-1.7-3.7-1.7-6 0-3.6 1.3-6.4 3.9-8.4 2.6-2.1 6.7-3.1 12.2-3.1h8.7c0-2.4-.7-4.3-2.2-5.6s-3.6-1.9-6.5-1.9c-2 0-4 .3-5.9 1s-3.6 1.5-4.9 2.6l-4-7.8c2-1.5 4.5-2.6 7.4-3.5 2.9-.8 5.8-1.2 8.8-1.3 5.7-.1 10.2 1.3 13.3 4.2zm-9.1 26.5c1.4-.9 2.5-2.2 3.1-3.9v-3.9h-7.5c-4.5 0-6.7 1.5-6.7 4.5 0 1.4.6 2.6 1.7 3.4s2.6 1.2 4.5 1.2c1.8 0 3.4-.4 4.9-1.3z"/><path d="m95.1 215.8c-1.3-1.2-1.9-2.7-1.9-4.4 0-1.8.6-3.2 1.9-4.4s2.9-1.8 4.9-1.8 3.6.6 4.9 1.7 1.9 2.6 1.9 4.3c0 1.9-.6 3.4-1.9 4.6s-2.9 1.8-4.9 1.8c-2-.1-3.6-.6-4.9-1.8zm-.5 7.1 10.9-.1.2 38.4-10.9.1z"/><path d="m117.3 260.6c-3-.8-5.4-1.7-7.1-2.9l3.6-8c1.7 1.1 3.7 2 6.1 2.6 2.4.7 4.7 1 7 1 4.6 0 6.9-1.2 6.9-3.5 0-1.1-.6-1.9-1.9-2.3-1.3-.5-3.2-.9-5.8-1.2-3.1-.5-5.6-1-7.6-1.6s-3.8-1.7-5.2-3.3c-1.5-1.6-2.2-3.8-2.2-6.7 0-2.4.7-4.6 2-6.5 1.4-1.9 3.4-3.4 6-4.4 2.6-1.1 5.7-1.6 9.3-1.6 2.7 0 5.3.3 7.9.8 2.6.6 4.8 1.4 6.6 2.4l-3.6 7.9c-3.3-1.9-6.9-2.8-10.9-2.8-2.3 0-4.1.4-5.2 1-1.2.7-1.7 1.5-1.7 2.6 0 1.2.6 2 1.9 2.5s3.3.9 6 1.3c3.1.5 5.6 1.1 7.6 1.6s3.7 1.7 5.1 3.2c1.5 1.6 2.2 3.7 2.2 6.6 0 2.4-.7 4.5-2.1 6.4s-3.4 3.3-6.1 4.4c-2.7 1-5.9 1.6-9.5 1.6-3.2 0-6.3-.4-9.3-1.1z"/><path d="m185.5 244.8-28.5.2c.5 2.4 1.7 4.2 3.7 5.6 1.9 1.4 4.3 2 7.1 2 2 0 3.7-.3 5.2-.9s2.9-1.6 4.2-2.8l5.8 6.4c-3.5 4.2-8.7 6.3-15.5 6.3-4.2 0-8-.8-11.3-2.5s-5.8-4-7.6-7-2.7-6.4-2.7-10.2.8-7.2 2.6-10.2c1.7-3 4.1-5.4 7.2-7.1 3-1.7 6.5-2.6 10.2-2.6s7 .8 10 2.4 5.3 3.9 7.1 6.9c1.7 3 2.6 6.5 2.6 10.5.1.1 0 1.1-.1 3zm-25.6-12.3c-1.7 1.4-2.7 3.4-3 5.9l18.5-.1c-.4-2.4-1.4-4.4-3.1-5.8s-3.7-2.2-6.2-2.1c-2.4 0-4.5.7-6.2 2.1z"/><path d="m251.4 222.1-16.8 40.8c-1.7 4.4-3.8 7.6-6.3 9.4s-5.6 2.7-9.2 2.8c-2 0-3.9-.3-5.8-.9s-3.5-1.5-4.7-2.5l3.9-7.9c.8.8 1.8 1.3 2.9 1.8 1.1.4 2.2.6 3.3.6 1.5 0 2.7-.4 3.6-1.1s1.8-2 2.5-3.7l.1-.4-16.5-38.6 11.3-.1 10.7 26 10.5-26.1z"/><path d="m262 258.4c-3.2-1.7-5.6-4-7.4-7s-2.7-6.4-2.7-10.2.8-7.2 2.6-10.2 4.2-5.4 7.3-7.1 6.7-2.6 10.7-2.6 7.5.8 10.6 2.5 5.6 4 7.4 7 2.7 6.4 2.7 10.2-.8 7.2-2.6 10.2-4.2 5.4-7.3 7.1-6.7 2.6-10.6 2.6-7.5-.8-10.7-2.5zm17.5-9.6c1.8-1.9 2.7-4.5 2.7-7.8s-.9-5.8-2.7-7.7-4.1-2.9-6.9-2.9-5.1 1-6.9 2.9-2.7 4.5-2.7 7.8.9 5.8 2.8 7.7c1.8 1.9 4.1 2.9 6.9 2.9 2.8.1 5.1-.9 6.8-2.9z"/><path d="m336.9 221.6.2 38.4-10.4.1v-4.6c-1.4 1.7-3.2 3-5.2 3.8-2 .9-4.2 1.3-6.5 1.4-4.9 0-8.9-1.4-11.8-4.3s-4.4-7.2-4.4-12.9l-.1-21.7 10.9-.1.1 20.1c0 6.2 2.6 9.3 7.7 9.2 2.6 0 4.7-.9 6.3-2.6s2.4-4.3 2.3-7.8l-.1-19z"/><path d="m361.4 222.3c2.2-1 4.8-1.5 7.7-1.5l.1 10.3c-1.2-.1-2-.1-2.4-.1-3.1 0-5.6.9-7.3 2.7-1.8 1.8-2.6 4.5-2.6 8l.1 18.1-10.9.1-.2-38.4 10.4-.1v5.1c1.1-1.8 2.9-3.2 5.1-4.2z"/><path d="m431.6 221.1.2 32c0 7-1.7 12.3-5.3 15.7s-8.8 5.2-15.7 5.2c-3.6 0-7.1-.4-10.4-1.3s-6-2.2-8.1-3.9l4.3-8c1.6 1.3 3.6 2.4 6 3.1 2.4.8 4.9 1.2 7.3 1.1 3.8 0 6.6-.9 8.3-2.6 1.8-1.7 2.7-4.4 2.6-7.9v-1.6c-2.8 3.2-6.8 4.8-11.9 4.8-3.5 0-6.6-.7-9.5-2.3-2.9-1.5-5.2-3.7-6.9-6.5s-2.6-6-2.6-9.7.8-6.9 2.5-9.7 3.9-5 6.8-6.6 6-2.4 9.5-2.4c5.5 0 9.6 1.8 12.5 5.4v-4.9zm-13.4 24.9c1.8-1.7 2.7-4 2.7-6.8s-.9-5.1-2.8-6.8-4.2-2.6-7.1-2.6-5.3.9-7.1 2.6c-1.9 1.7-2.8 4-2.8 6.8s1 5.1 2.8 6.8c1.9 1.7 4.3 2.6 7.1 2.6 3 0 5.4-.9 7.2-2.6z"/><path d="m469 224.6c3.1 2.8 4.7 7.1 4.8 12.8l.1 21.9-10.2.1v-4.8c-2 3.6-5.8 5.4-11.4 5.4-2.9 0-5.4-.5-7.5-1.5s-3.8-2.4-4.9-4.1c-1.1-1.8-1.7-3.7-1.7-6 0-3.6 1.3-6.4 3.9-8.4 2.6-2.1 6.7-3.1 12.2-3.1h8.7c0-2.4-.7-4.3-2.2-5.6s-3.6-1.9-6.5-1.9c-2 0-4 .3-5.9 1s-3.6 1.5-4.9 2.6l-4-7.8c2-1.5 4.5-2.6 7.4-3.5 2.9-.8 5.8-1.2 8.8-1.3 5.6 0 10.1 1.3 13.3 4.2zm-9.2 26.5c1.4-.9 2.5-2.2 3.1-3.9v-3.9h-7.5c-4.5 0-6.7 1.5-6.7 4.5 0 1.4.6 2.6 1.7 3.4s2.6 1.2 4.5 1.2c1.8 0 3.5-.4 4.9-1.3z"/><path d="m543 224.2c2.8 2.8 4.2 7.1 4.2 12.7l.1 22-10.9.1-.1-20.3c0-3-.6-5.3-1.9-6.8-1.2-1.5-3-2.2-5.3-2.2-2.6 0-4.6.9-6.1 2.6s-2.2 4.2-2.2 7.5l.1 19.3-10.9.1-.1-20.3c0-6-2.4-9.1-7.2-9-2.5 0-4.5.9-6 2.6s-2.2 4.2-2.2 7.5l.1 19.3-10.9.1-.2-38.4 10.4-.1v4.4c1.4-1.6 3.1-2.9 5.1-3.7 2-.9 4.2-1.3 6.7-1.3 2.7 0 5.1.5 7.2 1.6s3.9 2.6 5.2 4.6c1.5-2 3.5-3.6 5.8-4.7s4.9-1.7 7.7-1.7c4.9-.2 8.7 1.2 11.4 4.1z"/><path d="m592.3 242.6-28.5.2c.5 2.4 1.7 4.2 3.7 5.6 1.9 1.4 4.3 2 7.1 2 2 0 3.7-.3 5.2-.9s2.9-1.5 4.2-2.8l5.8 6.4c-3.5 4.2-8.7 6.3-15.5 6.3-4.2 0-8-.8-11.3-2.5s-5.8-4-7.6-7-2.7-6.4-2.7-10.2.8-7.2 2.6-10.2c1.7-3 4.1-5.4 7.2-7.1 3-1.7 6.5-2.6 10.2-2.6s7 .8 10 2.4 5.3 3.9 7.1 6.9c1.7 3 2.6 6.5 2.6 10.5.1.1 0 1.1-.1 3zm-25.6-12.3c-1.7 1.4-2.7 3.4-3 5.9l18.5-.1c-.4-2.4-1.4-4.4-3.1-5.8s-3.7-2.2-6.2-2.1c-2.5 0-4.5.7-6.2 2.1z"/><path d="m203.9 62.8c-.5 1.7-7.1 26-7.5 27.6-.4 1.1-.1 2.3.6 3.2 6.1 5.1 9.7 12.6 9.8 20.5 0 15.7-13.5 28.6-30.3 28.6s-30.4-12.5-30.5-28.2c0-8.3 3.8-16.2 10.3-21.4 1-.8 1.5-2 1.3-3.2-.3-1.7-4.8-24.6-5.2-26.9-.5-2.3-3.2-2.5-4.5-2-22.7 9-35.9 28.6-35.7 54.5.2 36.5 28.1 57.7 64.2 57.5 33.6-.2 64.7-19.2 64.5-60.2-.1-23.8-12.6-42.5-33.1-51.4-1.7-.6-3.3 0-3.9 1.4z"/><path d="m177.7 105.3h-.9c-1.8 0-3.3-1.5-3.3-3.4l-16.7-68.9c0-1.9 1.4-3.4 3.3-3.4l32.6-.2c1.9 0 3.4 1.5 3.4 3.4l-15.1 69c.1 1.9-1.3 3.4-3.2 3.5 0 0 0 0-.1 0z" fill="#ba0000"/><path d="m0 18.1c0-1 .9-1.8 1.9-1.8l52.4-.3c23.7-.1 40.7 3.8 52.2 12 12 8.5 19.1 22.3 19 36.9 0 15.6-5.4 29.3-15.8 38-13.3 11.2-32.5 16.3-54.7 16.4-3.3 0-6.3-.2-8.8-.3-1-.1-1.9.6-2 1.6v.2l.3 48.6c0 1-.9 1.8-1.8 1.7l-39.9.2c-1 0-1.8-.7-1.9-1.7zm44 68.1c0 1 .9 1.7 1.8 1.7h8.2c17.1 0 27.8-8.4 27.8-21.7 0-11.5-4.1-18.2-20.9-18.1h-15.2c-1 0-1.8.7-1.8 1.7z"/><path d="m611.4 16.4c0-1.1.9-1.9 2-1.9l52.2-.3c23.7-.1 40.7 3.8 52.2 12 12 8.5 19.1 22.3 18.9 36.9 0 15.6-5.4 29.3-15.8 38-13.3 11.2-32.5 16.3-54.7 16.4-3.2 0-6.2-.2-8.7-.3-1.1-.1-2 .6-2.2 1.7v.2l.3 48.3c0 1.1-.9 1.9-2 1.9l-39.6.2c-1.1 0-2-.8-2-1.9zm44 67.8c0 1.1.9 1.9 2 1.9h8.1c17.1 0 27.8-8.4 27.8-21.7 0-11.5-4.1-18.2-20.9-18.1h-15.2c-1.1 0-2 .8-2 1.9z" fill="#ba0000"/><path d="m274.5 57.6c.9-.1 1.7.5 1.9 1.4 1.8 8.5 11.2 51.5 12.9 63.5h.5c1.8-12.1 14.5-55.7 16.8-63.8.3-.8 1-1.4 1.9-1.3l31.3-.2c.9 0 1.7.6 1.9 1.4l17.1 64h.5l12.5-64.1c.2-.9 1-1.5 1.9-1.5l38.6-.2c1 0 1.9.7 1.9 1.8 0 .2 0 .4-.1.6l-34.1 108.8c-.3.8-1 1.3-1.9 1.3l-38.4.2c-.9 0-1.7-.6-1.9-1.4l-14.6-61.8h-.5l-14.5 62c-.2.9-1 1.5-1.9 1.5l-38.4.2c-.9 0-1.6-.5-1.9-1.3l-34-108.5c-.3-1 .3-2 1.3-2.3.2-.1.4-.1.6-.1z"/><path d="m443.9 127.3c-1.5 0-2.4 1-1.1 3.1 5.9 9.4 19.8 10.7 29.4 10.6h20.2c.8 0 1.6.5 1.9 1.3l6.5 26.5c.2 1-.5 1.9-1.4 2.1-.1 0-.3 0-.4 0l-33.1.2c-42.3.2-66.3-21.4-66.4-57-.2-26.2 17.7-60 61.9-60.2 38.8-.2 55.5 26.4 55.7 57.2.1 4.7-.3 9.5-1.2 14.2-.2.9-1 1.5-1.9 1.5zm30.6-28c1 0 1.9-.8 1.9-1.8 0-.1 0-.1 0-.2-.6-6.7-4.5-16.4-17-16.3-11.8 0-17 9.4-18.4 16.4-.1 1 .6 1.9 1.6 2h.3z"/><path d="m521.7 94.2c-.1-16.7-.4-27.1-1.1-36 0-1 .7-1.8 1.7-1.9h.1l33.9-.2c.9 0 1.8.7 1.9 1.6l1.6 18.6h1c5.8-12.4 20.5-21 31.2-22.2 2.6-.4 5.2-.6 7.9-.3.9.1 1.5.8 1.6 1.7l.2 35c0 1-.8 1.8-1.8 1.8-.1 0-.2 0-.3 0-3-.5-6-.7-9.1-.7-13 0-21.7 8.4-23.9 17.5-.5 2.3-.6 4.7-.6 7l.3 50.6c0 1-.9 1.8-1.9 1.8l-40.3.2c-1 0-1.8-.7-1.9-1.7z"/><g fill="#ba0000"><path d="m735 10.9 40.3-10.8c1-.3 2 .3 2.3 1.3 0 .1.1.3.1.4l.9 165.2c0 1-.8 1.7-1.8 1.7 0 0 0 0-.1 0l-40.2.2c-1 0-1.8-.7-1.9-1.7l-1-154.7c.1-.8.6-1.4 1.4-1.6z"/><path d="m854.1 168.3c-.9 0-1.7-.6-2-1.5l-2-8.4h-.9c-8.3 9.1-20.2 12.5-33.2 12.6-24.5.1-39.8-16.3-39.9-35.1-.2-30.1 28.7-43.7 69.5-44v-1c0-4.6-3.8-8.5-19.7-8.4h-25.8c-.9 0-1.7-.6-2-1.4l-5.8-25c-.3-1 .4-2.1 1.4-2.3.2 0 .4-.1.6-.1l39.6-.2c41.3-.2 55.7 21.3 55.8 49.3l.2 38c-.1 8.4.5 16.8 1.7 25.2.2 1-.5 1.9-1.4 2.1-.1 0-.3 0-.4 0zm-6.9-49.3c-.1-1.1-1-2-2.1-1.9 0 0 0 0-.1 0-16.6.5-26 5.2-25.9 14.6 0 7.2 5.1 10.8 12.5 10.8 6.7 0 12.7-4.2 15.1-10.4.4-1.9.6-3.8.5-5.8z"/><path d="m968.2 55.4 41.7-.2c1.2-.1 2.2.8 2.3 2 0 .3 0 .6-.1.9l-24.1 68.6c-17.6 47.2-29.4 64.3-42.4 75.2-12.9 10.9-25.6 15.9-40 16.3-.7 0-28.7.3-38.2.4-1.2.1-2.3-.7-2.4-1.9 0-.3 0-.6.1-.9l8.1-30.3c.3-1 1.2-1.6 2.2-1.6l24.9-.4c8.1 0 23.1-5.8 25.5-12.5 1.9-4.1 2-8.8.4-13l-43.1-99.2c-.5-1.1 0-2.4 1.1-2.9.3-.1.7-.2 1.1-.2l43.6-.2c1 0 1.8.6 2.2 1.6l19.5 59.3 15.3-59c-.1-1.1 1-2 2.3-2z"/></g></svg>