<?xml version="1.0" encoding="utf-8"?>
<!-- Generator: Adobe Illustrator 23.1.0, SVG Export Plug-In . SVG Version: 6.00 Build 0)  -->
<svg version="1.1" id="Layer_1" xmlns="http://www.w3.org/2000/svg" xmlns:xlink="http://www.w3.org/1999/xlink" x="0px" y="0px"
	 viewBox="0 0 306.8 86" style="enable-background:new 0 0 306.8 86;" xml:space="preserve">
<style type="text/css">
	.st0{fill:#F58720;}
</style>
<title>Sports Interaction LOGO - white</title>
<g>
	<g>
		<g>
			<g>
				<path d="M108.8,17.9c-2.8,0-4.3,1.2-4.3,2.9s1.7,2.7,4.4,3.3l2.6,0.6c6,1.3,9.2,4.3,9.3,9.1c0,5.8-4.5,9.2-12,9.2
					s-12.6-3.4-12.7-10.5h7c0.2,2.9,2.3,4.4,5.5,4.4c2.9,0,4.7-1.3,4.7-3.1c0-1.7-1.5-2.6-4.8-3.4l-3.2-0.7
					c-5.2-1.2-8.5-3.8-8.4-8.4c0-5.6,4.9-9.4,11.9-9.4s11.6,3.8,11.6,9.5h-7C113.2,19.2,111.6,17.9,108.8,17.9"/>
				<path d="M134.1,12.3h12.5c6.8,0,11,4.3,11,10.5s-4.3,10.4-11.3,10.4h-5v9.4H134L134.1,12.3z M145,27.4c3.3,0,5-1.8,5-4.6
					s-1.8-4.6-5-4.6h-3.6v9.2H145z"/>
				<path d="M183.8,43c-8.2,0-14.5-5.6-14.5-15.6s6.3-15.6,14.5-15.6s14.5,5.5,14.5,15.6S192,43,183.8,43 M183.8,18.3
					c-4.4,0-7,3.2-7,9.1s2.6,9.1,7,9.1s7-3.2,7-9.1S188.2,18.3,183.8,18.3"/>
				<path d="M211.1,12.3h12.5c6.8,0,11,3.9,11,10.1c0,4.2-1.9,7.2-5.2,8.7l6.3,11.5h-8l-5.5-10.4h-3.8v10.4H211L211.1,12.3z
					 M222,26.5c3.3,0,5.1-1.3,5.1-4.1s-1.8-4.2-5.1-4.2h-3.6v8.3H222z"/>
				<polygon points="246.1,12.3 271.8,12.3 271.8,18.2 262.6,18.2 262.6,42.6 255.4,42.6 255.4,18.2 246.1,18.2 				"/>
				<path d="M294.8,17.9c-2.8,0-4.3,1.2-4.3,2.9s1.7,2.7,4.4,3.3l2.6,0.6c6,1.3,9.2,4.3,9.3,9.1c0,5.8-4.5,9.2-12,9.2
					s-12.5-3.4-12.6-10.5h7c0.2,2.9,2.3,4.4,5.5,4.4c3,0,4.7-1.3,4.7-3.1c0-1.7-1.5-2.6-4.9-3.4l-3.2-0.7c-5.2-1.2-8.5-3.8-8.5-8.4
					c0-5.6,5-9.4,11.9-9.4s11.6,3.8,11.6,9.5h-7C299.2,19.2,297.6,17.9,294.8,17.9"/>
				<rect x="96.8" y="55.7" width="2.2" height="18.2"/>
				<polygon points="122.5,73.9 120.3,73.9 110.4,59.6 110.3,59.6 110.3,73.9 108.1,73.9 108.1,55.7 110.2,55.7 120.1,70 120.3,70 
					120.3,55.7 122.5,55.7 				"/>
				<polygon points="131,55.7 144.6,55.7 144.6,57.7 138.9,57.7 138.9,73.9 136.7,73.9 136.7,57.7 131,57.7 				"/>
				<polygon points="153.1,55.7 164.1,55.7 164.1,57.7 155.3,57.7 155.3,63.8 163.5,63.8 163.5,65.8 155.3,65.8 155.3,71.9 
					164.2,71.9 164.2,73.9 153.1,73.9 				"/>
				<path d="M173.2,55.7h6.1c4.3,0,6.2,2.4,6.2,5.6c0.2,2.3-1.2,4.4-3.4,5.1l4.1,7.5h-2.6l-3.8-7.1h-4.4v7.1h-2.2V55.7z M179.3,64.8
					c2.9,0,4.1-1.3,4.1-3.5s-1.1-3.6-4.1-3.6h-3.9v7.1H179.3z"/>
				<path d="M193.1,73.9l6.7-18.2h2.2l6.7,18.2h-2.3l-1.8-5.2h-7.4l-1.8,5.2H193.1z M203.9,66.8l-2.9-8.2h-0.1l-3,8.2H203.9z"/>
				<path d="M227.3,61.4c-0.5-2.4-2.7-4-5.1-3.9c-3.3,0-5.9,2.6-5.9,7.3s2.6,7.3,5.9,7.3c2.4,0.1,4.6-1.5,5.1-3.9h2.2
					c-0.6,3.5-3.7,6.1-7.3,5.9c-4.6,0-8-3.6-8-9.3s3.4-9.3,8-9.3c3.6-0.2,6.7,2.4,7.3,5.9L227.3,61.4z"/>
				<polygon points="236.2,55.7 249.8,55.7 249.8,57.7 244.1,57.7 244.1,73.9 241.9,73.9 241.9,57.7 236.2,57.7 				"/>
				<rect x="258.3" y="55.7" width="2.2" height="18.2"/>
				<path d="M276.8,74.2c-4.6,0-8-3.6-8-9.3s3.4-9.3,8-9.3s8,3.6,8,9.3S281.5,74.1,276.8,74.2 M276.8,57.5c-3.3,0-5.9,2.6-5.9,7.3
					s2.6,7.3,5.9,7.3s5.9-2.6,5.9-7.3S280.1,57.5,276.8,57.5"/>
				<polygon points="306.6,73.9 304.5,73.9 294.5,59.6 294.4,59.6 294.4,73.9 292.2,73.9 292.2,55.7 294.3,55.7 304.2,70 304.4,70 
					304.4,55.7 306.6,55.7 				"/>
			</g>
		</g>
	</g>
</g>
<g>
	<g>
		<g>
			<g>
				<path class="st0" d="M50.4,0c3.3,7.7,0.8,16.6-6,21.4l-43,30.1c-3.3-7.7-0.8-16.6,6.1-21.4l0,0L50.4,0z M31.7,64.6
					c-6.8,4.8-9.3,13.7-6,21.4l42.9-30l0,0c7.9-5.7,9.6-16.7,3.9-24.6c-5.6-7.7-16.2-9.5-24.1-4.2l0,0l-42.9,30
					c6.1,5.7,15.3,6.4,22.2,1.6l0,0l28.8-20.2l0,0c1.7-1,3.8-0.4,4.8,1.3c0.8,1.5,0.5,3.4-0.8,4.4L31.7,64.6z"/>
			</g>
		</g>
	</g>
</g>
</svg>
