<svg enable-background="new 0 0 306.8 86" viewBox="0 0 306.8 86" xmlns="http://www.w3.org/2000/svg"><path d="m108.8 17.9c-2.8 0-4.3 1.2-4.3 2.9s1.7 2.7 4.4 3.3l2.6.6c6 1.3 9.2 4.3 9.3 9.1 0 5.8-4.5 9.2-12 9.2s-12.6-3.4-12.7-10.5h7c.2 2.9 2.3 4.4 5.5 4.4 2.9 0 4.7-1.3 4.7-3.1 0-1.7-1.5-2.6-4.8-3.4l-3.2-.7c-5.2-1.2-8.5-3.8-8.4-8.4 0-5.6 4.9-9.4 11.9-9.4s11.6 3.8 11.6 9.5h-7c-.2-2.2-1.8-3.5-4.6-3.5"/><path d="m134.1 12.3h12.5c6.8 0 11 4.3 11 10.5s-4.3 10.4-11.3 10.4h-5v9.4h-7.3zm10.9 15.1c3.3 0 5-1.8 5-4.6s-1.8-4.6-5-4.6h-3.6v9.2z"/><path d="m183.8 43c-8.2 0-14.5-5.6-14.5-15.6s6.3-15.6 14.5-15.6 14.5 5.5 14.5 15.6-6.3 15.6-14.5 15.6m0-24.7c-4.4 0-7 3.2-7 9.1s2.6 9.1 7 9.1 7-3.2 7-9.1-2.6-9.1-7-9.1"/><path d="m211.1 12.3h12.5c6.8 0 11 3.9 11 10.1 0 4.2-1.9 7.2-5.2 8.7l6.3 11.5h-8l-5.5-10.4h-3.8v10.4h-7.4zm10.9 14.2c3.3 0 5.1-1.3 5.1-4.1s-1.8-4.2-5.1-4.2h-3.6v8.3z"/><path d="m246.1 12.3h25.7v5.9h-9.2v24.4h-7.2v-24.4h-9.3z"/><path d="m294.8 17.9c-2.8 0-4.3 1.2-4.3 2.9s1.7 2.7 4.4 3.3l2.6.6c6 1.3 9.2 4.3 9.3 9.1 0 5.8-4.5 9.2-12 9.2s-12.5-3.4-12.6-10.5h7c.2 2.9 2.3 4.4 5.5 4.4 3 0 4.7-1.3 4.7-3.1 0-1.7-1.5-2.6-4.9-3.4l-3.2-.7c-5.2-1.2-8.5-3.8-8.5-8.4 0-5.6 5-9.4 11.9-9.4s11.6 3.8 11.6 9.5h-7c-.1-2.2-1.7-3.5-4.5-3.5"/><path d="m96.8 55.7h2.2v18.2h-2.2z"/><path d="m122.5 73.9h-2.2l-9.9-14.3h-.1v14.3h-2.2v-18.2h2.1l9.9 14.3h.2v-14.3h2.2z"/><path d="m131 55.7h13.6v2h-5.7v16.2h-2.2v-16.2h-5.7z"/><path d="m153.1 55.7h11v2h-8.8v6.1h8.2v2h-8.2v6.1h8.9v2h-11.1z"/><path d="m173.2 55.7h6.1c4.3 0 6.2 2.4 6.2 5.6.2 2.3-1.2 4.4-3.4 5.1l4.1 7.5h-2.6l-3.8-7.1h-4.4v7.1h-2.2zm6.1 9.1c2.9 0 4.1-1.3 4.1-3.5s-1.1-3.6-4.1-3.6h-3.9v7.1z"/><path d="m193.1 73.9 6.7-18.2h2.2l6.7 18.2h-2.3l-1.8-5.2h-7.4l-1.8 5.2zm10.8-7.1-2.9-8.2h-.1l-3 8.2z"/><path d="m227.3 61.4c-.5-2.4-2.7-4-5.1-3.9-3.3 0-5.9 2.6-5.9 7.3s2.6 7.3 5.9 7.3c2.4.1 4.6-1.5 5.1-3.9h2.2c-.6 3.5-3.7 6.1-7.3 5.9-4.6 0-8-3.6-8-9.3s3.4-9.3 8-9.3c3.6-.2 6.7 2.4 7.3 5.9z"/><path d="m236.2 55.7h13.6v2h-5.7v16.2h-2.2v-16.2h-5.7z"/><path d="m258.3 55.7h2.2v18.2h-2.2z"/><path d="m276.8 74.2c-4.6 0-8-3.6-8-9.3s3.4-9.3 8-9.3 8 3.6 8 9.3-3.3 9.2-8 9.3m0-16.7c-3.3 0-5.9 2.6-5.9 7.3s2.6 7.3 5.9 7.3 5.9-2.6 5.9-7.3-2.6-7.3-5.9-7.3"/><path d="m306.6 73.9h-2.1l-10-14.3h-.1v14.3h-2.2v-18.2h2.1l9.9 14.3h.2v-14.3h2.2z"/><path d="m50.4 0c3.3 7.7.8 16.6-6 21.4l-43 30.1c-3.3-7.7-.8-16.6 6.1-21.4zm-18.7 64.6c-6.8 4.8-9.3 13.7-6 21.4l42.9-30c7.9-5.7 9.6-16.7 3.9-24.6-5.6-7.7-16.2-9.5-24.1-4.2l-42.9 30c6.1 5.7 15.3 6.4 22.2 1.6l28.8-20.2c1.7-1 3.8-.4 4.8 1.3.8 1.5.5 3.4-.8 4.4z" fill="#f58720"/></svg>