<svg enable-background="new 0 0 162.7 101.5" viewBox="0 0 162.7 101.5" xmlns="http://www.w3.org/2000/svg" xmlns:xlink="http://www.w3.org/1999/xlink"><linearGradient id="a" gradientTransform="matrix(1 0 0 -1 -7.24 -290.713)" gradientUnits="userSpaceOnUse" x1="37.3167" x2="145.7822" y1="-282.4268" y2="-390.8923"><stop offset=".23" stop-color="#12562b"/><stop offset=".78" stop-color="#2db34a"/><stop offset=".78" stop-color="#33b449"/><stop offset=".82" stop-color="#55bb45"/><stop offset=".86" stop-color="#70c142"/><stop offset=".9" stop-color="#83c540"/><stop offset=".94" stop-color="#8ec73e"/><stop offset=".99" stop-color="#92c83e"/></linearGradient><path d="m33.5 40.5c-1.2-.9-2.4-1.8-3.7-2.5-.9-.5-2.2-1.2-4-2.1s-2.8-1.4-3.1-1.6-.7-.4-1.2-.6c-.4-.1-.7-.3-1-.5l-.8-.6c-.4-.3-.6-.8-.5-1.3 0-1.7 1.1-2.5 3.4-2.5 2 0 6.1.7 12.3 2.1 1 .2 2-.4 2.2-1.4 0-.1 0-.1 0-.2l1.6-14.8c.1-.9-.5-1.8-1.5-2-5.8-1.2-11.6-1.7-17.5-1.8-6.2 0-11 1.9-14.5 5.8s-5.2 9.3-5.2 16.2c0 7 2.3 12.4 7 16.3 1.2 1.1 2.5 2 3.9 2.8 1.1.6 2.5 1.3 4.1 2.1s2.9 1.5 3.7 2c.7.4 1.3.8 1.9 1.4.4.4.7 1.1.6 1.7 0 1.5-.9 2.3-2.7 2.3-2.5 0-7-1-13.6-2.9-1-.3-2 .3-2.3 1.3 0 .1-.1.3-.1.4l-1 14c0 .8.5 1.6 1.3 1.8 5.7 1.6 11.5 2.4 17.4 2.4 6.4 0 11.3-1.9 14.8-5.7 3.4-3.8 5.1-9.2 5.1-16.1.2-7.1-2-12.4-6.6-16zm127.4-28.7h-13.1c-1 0-1.8.8-1.8 1.8v24.8h-.5l-9.9-25.4c-.3-.7-1-1.2-1.7-1.2h-15.3c-1 0-1.8.8-1.8 1.8v2.7l-7.6-3.7c-.5-.3-.9-.8-1-1.4l-1.4-9.7c-.2-1-1.1-1.7-2.1-1.5-.4.1-.8.2-1 .5l-6.8 7c-.4.4-1 .6-1.6.5l-9.7-1.7c-1-.2-1.9.5-2.1 1.5-.1.4 0 .8.2 1.2l4.6 8.7c.3.5.3 1.2 0 1.7l-2.9 5.6c-.6-3-1.9-5.7-3.9-8-3.2-3.5-8.4-5.3-15.6-5.3h-19.4c-1 0-1.8.8-1.8 1.8v61.6c0 1 .8 1.8 1.8 1.8h14.6c1 0 1.8-.8 1.9-1.8v-16.6c0-1 .8-1.8 1.8-1.8h1.9c6.7 0 11.7-1.7 14.8-5.1s4.7-9.1 4.7-17.2c0-1.3-.1-2.5-.1-3.7l9.1-1.6c.6-.1 1.2.1 1.6.5l6.2 6.4h-10.2c-1 0-1.8.8-1.8 1.8v37.4c0 1 .8 1.8 1.8 1.8h14.7c1 0 1.8-.8 1.8-1.8v-37.3c0-1-.8-1.8-1.8-1.8h-.8c0-.1.1-.2.1-.3l1.4-9.7c.1-.6.5-1.1 1-1.4l7.6-3.7v54.4c0 1 .8 1.8 1.8 1.8h12.9c1 0 1.8-.8 1.8-1.8v-24.1h.7l10.4 24.7c.3.7.9 1.1 1.7 1.1h14.7c1 0 1.8-.8 1.8-1.8v-61.6c.1-1.1-.7-1.9-1.7-1.9zm-93.3 29.7c-.5 1.1-1.6 1.8-2.8 1.7h-.4c-1 0-1.8-.8-1.8-1.8v-11.1c0-1 .8-1.8 1.8-1.8 1.3-.1 2.5.5 3.1 1.7.7 1.8 1 3.7.8 5.7.2 1.8-.1 3.7-.7 5.6z" fill="url(#a)"/><g fill="#8d8d8d"><path d="m.1 98c0-.3.1-.5.2-.8s.2-.5.4-.7.3-.4.5-.6c.1-.1.3-.3.4-.4s.2-.1.2-.1c.7.6 1.5 1.1 2.3 1.4 1 .4 1.9.6 2.9.7 1.6 0 2.4-.5 2.4-1.3 0-.2 0-.3-.1-.4s-.2-.2-.3-.3c-.2-.1-.3-.2-.5-.2l-.6-.3-.8-.2-.8-.2c-.6-.1-1.1-.3-1.7-.4s-1.1-.4-1.6-.6c-.5-.3-.9-.6-1.3-1s-.7-.9-.9-1.4c-.2-.6-.3-1.2-.3-1.9-.1-1.6.6-3.2 1.9-4.2 1.6-1.1 3.5-1.6 5.5-1.5 1.7-.1 3.3.2 4.8.9.9.4 1.6 1.3 1.6 2.3 0 .3-.1.6-.2.8-.1.3-.3.5-.4.8-.2.2-.4.4-.5.6-.1.1-.3.3-.5.4-.1.1-.2.1-.2.1-.6-.6-1.3-1-2.1-1.3s-1.6-.5-2.4-.5c-1.5 0-2.3.4-2.3 1.3 0 .2 0 .3.1.5.1.1.3.3.5.3.2.1.4.1.7.2.2 0 .5.1.9.2l1 .2c.8.2 1.6.4 2.4.7.7.2 1.3.6 1.9 1 .5.4 1 .9 1.3 1.5s.5 1.3.4 2.1c.1 1.7-.7 3.3-2 4.3-1.7 1.1-3.7 1.7-5.7 1.6-1.1 0-2.1-.1-3.2-.3-.8-.1-1.5-.4-2.1-.8-.5-.3-.9-.7-1.2-1.1-.4-.5-.6-.9-.6-1.4z"/><path d="m29 98.8v-11.9c-.1-.8.2-1.6.7-2.2.5-.5 1.3-.8 2-.8h4.5c2-.1 4 .4 5.6 1.6 2.5 2.5 2.6 6.7.1 9.3-1.6 1.1-3.5 1.7-5.5 1.6h-2.1v2.5c0 .7-.2 1.3-.6 1.8-.5.4-1.1.7-1.7.6h-.8c-.6 0-1.2-.2-1.6-.6-.5-.6-.7-1.2-.6-1.9zm5.3-6.4h1.9c.7 0 1.3-.2 1.8-.6.9-1 .9-2.4 0-3.4-.5-.4-1.2-.6-1.9-.6h-1.9z"/><path d="m57.2 92.6c0-1.6.4-3.2 1.2-4.6.8-1.3 1.9-2.5 3.2-3.2 2.9-1.5 6.4-1.5 9.4 0 1.4.7 2.5 1.8 3.2 3.2 1.5 2.9 1.5 6.4 0 9.3-.8 1.3-1.9 2.4-3.2 3.1-1.4.8-3 1.2-4.7 1.1-1.3 0-2.5-.2-3.7-.7-2.2-.8-3.9-2.5-4.8-4.7-.4-1.1-.6-2.3-.6-3.5zm5.3 0c-.1 1.1.3 2.2 1 3.1.7.8 1.7 1.2 2.8 1.2 1 0 2.1-.4 2.8-1.2 1.4-1.8 1.4-4.4 0-6.2-.7-.8-1.7-1.2-2.8-1.2s-2.1.4-2.8 1.2-1.1 1.9-1 3.1z"/><path d="m89.8 98.2v-11.3c-.1-.8.2-1.6.7-2.2.5-.5 1.3-.8 2-.8h5.3c1.9-.1 3.8.4 5.4 1.4 1.2 1 1.9 2.6 1.8 4.2 0 1.2-.3 2.3-1 3.2s-1.7 1.6-2.8 1.8l3.9 4.8v.1c0 .1 0 .1-.1.2-.1.2-.2.3-.3.5-.2.2-.4.4-.6.5-.3.2-.6.3-.9.4-.4.1-.8.2-1.2.2-.7 0-1.4-.1-1.9-.5-.6-.5-1.2-1.1-1.7-1.7l-2.4-3.2h-1v3c0 .7-.2 1.3-.6 1.8-.5.4-1.1.7-1.8.6h-.6c-.7 0-1.3-.3-1.7-.8-.4-.6-.6-1.4-.5-2.2zm5.2-6.2h2.2c.6 0 1.3-.1 1.8-.5.4-.4.6-.9.6-1.5 0-1.3-.8-2-2.4-2h-2.2z"/><path d="m118.6 86.2c0-1.6.8-2.3 2.4-2.3h11c1.6 0 2.5.7 2.5 2.2v.1c0 1.6-.8 2.3-2.5 2.3h-2.8v10.2c.1.7-.2 1.3-.6 1.8-.5.4-1.1.7-1.8.6h-.7c-1.5 0-2.2-.8-2.2-2.5v-10h-2.9c-.7 0-1.3-.2-1.8-.6-.5-.5-.7-1.1-.6-1.8z"/><path d="m147.7 98c0-.3.1-.5.2-.8s.2-.5.4-.7.3-.4.5-.6c.1-.1.3-.3.4-.4s.2-.1.2-.1c.7.6 1.5 1.1 2.3 1.4.9.4 1.8.6 2.8.6 1.6 0 2.4-.4 2.4-1.3 0-.2 0-.3-.1-.4s-.2-.2-.3-.3c-.2-.1-.3-.2-.5-.2l-.6-.2-.8-.2-.8-.2c-.6-.1-1.1-.3-1.7-.4-.5-.2-1-.4-1.5-.7s-.9-.6-1.3-1-.7-.9-.9-1.4c-.2-.6-.3-1.2-.3-1.9-.1-1.6.6-3.2 1.9-4.2 1.6-1.1 3.5-1.6 5.4-1.5 1.7-.1 3.3.2 4.8.9 1 .4 1.6 1.3 1.7 2.3 0 .3-.1.6-.2.8-.1.3-.3.5-.4.8-.2.2-.4.4-.5.6-.1.1-.3.3-.5.4-.1.1-.2.1-.2.1-.6-.6-1.3-1-2.1-1.3s-1.6-.5-2.4-.5c-1.5 0-2.3.4-2.3 1.3 0 .2 0 .3.1.5.1.1.3.3.5.3.2.1.4.1.6.2.2 0 .5.1.9.2l1 .2c.8.2 1.6.4 2.4.7.7.3 1.3.6 1.9 1 .5.4 1 .9 1.3 1.5s.5 1.3.4 2.1c.1 1.7-.7 3.3-2 4.3-1.7 1.1-3.8 1.7-5.8 1.5-1.1 0-2.1-.1-3.2-.3-.8-.1-1.5-.4-2.1-.8-.5-.3-.9-.7-1.1-1.1-.3-.3-.5-.8-.5-1.2z"/></g></svg>